<svg width="42" height="43" viewBox="0 0 42 43" fill="none" xmlns="http://www.w3.org/2000/svg">
<g filter="url(#filter0_i_29_781)">
<path fill-rule="evenodd" clip-rule="evenodd" d="M34.4459 0.701202C30.2934 0.701202 26.9271 4.06749 26.9271 8.22001C26.9271 12.0916 29.8533 15.2797 33.6146 15.6934V16.9142C33.6146 19.0405 31.8909 20.7642 29.7646 20.7642H12.3769C10.2506 20.7642 8.52686 19.0405 8.52686 16.9142V15.6934C12.2882 15.2797 15.2144 12.0916 15.2144 8.22007C15.2144 4.06755 11.8481 0.701263 7.69556 0.701263C3.54304 0.701263 0.176758 4.06755 0.176758 8.22007C0.176758 11.6186 2.43159 14.4905 5.52686 15.4214V16.9142C5.52686 20.6973 8.59373 23.7642 12.3769 23.7642H19.5707V27.6016C16.1369 28.2968 13.5519 31.3319 13.5519 34.9708C13.5519 39.1233 16.9182 42.4896 21.0707 42.4896C25.2232 42.4896 28.5895 39.1233 28.5895 34.9708C28.5895 31.3319 26.0045 28.2968 22.5707 27.6016V23.7642H29.7646C33.5478 23.7642 36.6146 20.6973 36.6146 16.9142V15.4213C39.7099 14.4905 41.9647 11.6186 41.9647 8.22001C41.9647 4.06749 38.5985 0.701202 34.4459 0.701202ZM29.9271 8.22001C29.9271 5.72434 31.9503 3.7012 34.4459 3.7012C36.9416 3.7012 38.9647 5.72434 38.9647 8.22001C38.9647 10.7157 36.9416 12.7388 34.4459 12.7388C31.9503 12.7388 29.9271 10.7157 29.9271 8.22001ZM3.17676 8.22007C3.17676 5.7244 5.1999 3.70126 7.69556 3.70126C10.1912 3.70126 12.2144 5.7244 12.2144 8.22007C12.2144 10.7157 10.1912 12.7389 7.69556 12.7389C5.1999 12.7389 3.17676 10.7157 3.17676 8.22007ZM21.0707 30.452C18.575 30.452 16.5519 32.4751 16.5519 34.9708C16.5519 37.4664 18.575 39.4896 21.0707 39.4896C23.5664 39.4896 25.5895 37.4664 25.5895 34.9708C25.5895 32.4751 23.5664 30.452 21.0707 30.452Z" fill="#93D290"/>
</g>
<defs>
<filter id="filter0_i_29_781" x="0.176758" y="0.701202" width="41.788" height="42.7884" filterUnits="userSpaceOnUse" color-interpolation-filters="sRGB">
<feFlood flood-opacity="0" result="BackgroundImageFix"/>
<feBlend mode="normal" in="SourceGraphic" in2="BackgroundImageFix" result="shape"/>
<feColorMatrix in="SourceAlpha" type="matrix" values="0 0 0 0 0 0 0 0 0 0 0 0 0 0 0 0 0 0 127 0" result="hardAlpha"/>
<feOffset dy="1"/>
<feGaussianBlur stdDeviation="1"/>
<feComposite in2="hardAlpha" operator="arithmetic" k2="-1" k3="1"/>
<feColorMatrix type="matrix" values="0 0 0 0 1 0 0 0 0 1 0 0 0 0 1 0 0 0 0.55 0"/>
<feBlend mode="normal" in2="shape" result="effect1_innerShadow_29_781"/>
</filter>
</defs>
</svg>
