<svg width="43" height="40" viewBox="0 0 43 40" fill="none" xmlns="http://www.w3.org/2000/svg">
<g filter="url(#filter0_i_29_801)">
<path d="M11.292 12.5561C11.5916 7.23919 16.0379 2.99976 21.5 2.99976C26.9621 2.99976 31.4084 7.2392 31.708 12.5561C31.7504 13.3084 32.3443 13.9125 33.0958 13.9677C36.966 14.2518 40 17.455 40 21.3419C40 23.6416 39.1574 24.7534 38.4753 25.3174C38.1083 25.6208 37.7404 25.803 37.4687 25.9079C37.334 25.9598 37.2273 25.9911 37.1626 26.0079C37.1433 26.0129 37.1279 26.0166 37.1169 26.0191C37.1097 26.0208 37.1043 26.0219 37.101 26.0226L37.0995 26.0229C36.292 26.1663 35.748 26.9331 35.8822 27.7445C36.0173 28.5618 36.7894 29.1148 37.6068 28.9797L37.3805 27.611C37.6068 28.9797 37.6087 28.9793 37.6087 28.9793L37.6107 28.979L37.615 28.9783L37.6249 28.9766L37.6492 28.9722C37.6675 28.9687 37.6899 28.9644 37.716 28.9589C37.7683 28.9479 37.8361 28.9325 37.9171 28.9115C38.0788 28.8695 38.2953 28.8045 38.5486 28.7068C39.0527 28.5123 39.7193 28.1814 40.3868 27.6295C41.7737 26.4829 43 24.5158 43 21.3419C43 16.2854 39.3705 12.0864 34.5737 11.1446C33.6081 4.82618 28.1143 -0.000244141 21.5 -0.000244141C14.8857 -0.000244141 9.3919 4.82618 8.42632 11.1446C3.62948 12.0864 0 16.2854 0 21.3419C0 24.5158 1.22632 26.4829 2.61318 27.6295C3.28071 28.1814 3.94729 28.5123 4.45144 28.7068C4.70468 28.8045 4.92125 28.8695 5.0829 28.9115C5.1639 28.9325 5.23166 28.9479 5.28397 28.9589C5.31014 28.9644 5.3325 28.9687 5.35079 28.9722L5.37514 28.9766L5.38498 28.9783L5.3893 28.979L5.39132 28.9793C5.39132 28.9793 5.39321 28.9797 5.63263 27.5318L5.39323 28.9797C6.21056 29.1148 6.98269 28.5618 7.11784 27.7445C7.25199 26.9331 6.70801 26.1663 5.90052 26.0229L5.89895 26.0226C5.89065 26.0209 5.8695 26.0162 5.83736 26.0079C5.77272 25.9911 5.66601 25.9598 5.53131 25.9079C5.25961 25.803 4.89171 25.6208 4.52475 25.3174C3.84264 24.7534 3 23.6416 3 21.3419C3 17.455 6.034 14.2518 9.90423 13.9676C10.6557 13.9125 11.2496 13.3084 11.292 12.5561Z" fill="#3FB3E5"/>
<path d="M21.7376 18.9098C22.1628 18.9098 22.568 19.0903 22.8525 19.4064L28.8713 26.0939C29.4255 26.7097 29.3756 27.6581 28.7598 28.2123C28.1441 28.7665 27.1956 28.7166 26.6414 28.1008L23.2372 24.3183V37.7973C23.2372 38.6257 22.5656 39.2973 21.7372 39.2973C20.9088 39.2973 20.2372 38.6257 20.2372 37.7973V24.3192L16.8337 28.1008C16.2795 28.7166 15.3311 28.7665 14.7153 28.2123C14.0996 27.6581 14.0496 26.7097 14.6038 26.0939L20.6226 19.4064C20.9071 19.0903 21.3123 18.9098 21.7376 18.9098Z" fill="#3FB3E5"/>
</g>
<defs>
<filter id="filter0_i_29_801" x="0" y="-0.000244141" width="43" height="40.2975" filterUnits="userSpaceOnUse" color-interpolation-filters="sRGB">
<feFlood flood-opacity="0" result="BackgroundImageFix"/>
<feBlend mode="normal" in="SourceGraphic" in2="BackgroundImageFix" result="shape"/>
<feColorMatrix in="SourceAlpha" type="matrix" values="0 0 0 0 0 0 0 0 0 0 0 0 0 0 0 0 0 0 127 0" result="hardAlpha"/>
<feOffset dy="1"/>
<feGaussianBlur stdDeviation="1"/>
<feComposite in2="hardAlpha" operator="arithmetic" k2="-1" k3="1"/>
<feColorMatrix type="matrix" values="0 0 0 0 1 0 0 0 0 1 0 0 0 0 1 0 0 0 0.55 0"/>
<feBlend mode="normal" in2="shape" result="effect1_innerShadow_29_801"/>
</filter>
</defs>
</svg>
