<svg width="43" height="43" viewBox="0 0 43 43" fill="none" xmlns="http://www.w3.org/2000/svg">
<g filter="url(#filter0_i_29_775)">
<path fill-rule="evenodd" clip-rule="evenodd" d="M7.35994 0.701233C3.57676 0.701233 0.509888 3.76811 0.509888 7.55129V35.6391C0.509888 39.4222 3.57676 42.4891 7.35994 42.4891H35.4477C39.2309 42.4891 42.2978 39.4222 42.2978 35.6391V7.55129C42.2978 3.76811 39.2309 0.701233 35.4477 0.701233H7.35994ZM3.50989 7.55129C3.50989 5.42496 5.23362 3.70123 7.35994 3.70123H18.9344V24.9447H3.50989V7.55129ZM3.50989 27.9447H18.9344V39.4891H7.35994C5.23362 39.4891 3.50989 37.7654 3.50989 35.6391V27.9447ZM21.9344 39.4891H35.4477C37.574 39.4891 39.2978 37.7654 39.2978 35.6391V20.1208C39.1588 20.1633 39.0112 20.1862 38.8582 20.1862H21.9344V39.4891ZM21.9344 17.1862V3.70123H35.4477C37.574 3.70123 39.2978 5.42496 39.2978 7.55129V17.2516C39.1588 17.2091 39.0112 17.1862 38.8582 17.1862H21.9344Z" fill="#DEBC71"/>
</g>
<defs>
<filter id="filter0_i_29_775" x="0.509888" y="0.701233" width="41.7878" height="42.7879" filterUnits="userSpaceOnUse" color-interpolation-filters="sRGB">
<feFlood flood-opacity="0" result="BackgroundImageFix"/>
<feBlend mode="normal" in="SourceGraphic" in2="BackgroundImageFix" result="shape"/>
<feColorMatrix in="SourceAlpha" type="matrix" values="0 0 0 0 0 0 0 0 0 0 0 0 0 0 0 0 0 0 127 0" result="hardAlpha"/>
<feOffset dy="1"/>
<feGaussianBlur stdDeviation="1"/>
<feComposite in2="hardAlpha" operator="arithmetic" k2="-1" k3="1"/>
<feColorMatrix type="matrix" values="0 0 0 0 1 0 0 0 0 1 0 0 0 0 1 0 0 0 0.55 0"/>
<feBlend mode="normal" in2="shape" result="effect1_innerShadow_29_775"/>
</filter>
</defs>
</svg>
