<svg width="17" height="14" viewBox="0 0 17 14" fill="none" xmlns="http://www.w3.org/2000/svg">
<path d="M5.31 13.25C10.7819 13.25 13.7744 8.4403 13.7744 4.26994C13.7744 4.03682 13.9396 3.83015 14.152 3.73398C14.8803 3.40413 15.8249 2.49943 14.8494 0.97828C14.2031 1.32576 13.6719 1.51562 12.9603 1.74448C11.834 0.473931 9.94953 0.412685 8.75136 1.60761C7.9785 2.37819 7.65098 3.52686 7.89073 4.62304C5.49851 4.49618 2.69788 2.73566 1.1875 0.763913C0.398144 2.20632 0.801069 4.05121 2.10822 4.97802C1.63461 4.96302 1.1716 4.82741 0.758067 4.58305V4.62304C0.758067 6.12545 1.75654 7.41912 3.1444 7.7166C2.70672 7.84347 2.24724 7.86222 1.80131 7.77097C2.19128 9.05651 3.87974 10.4989 5.15272 10.5245C4.09887 11.4026 2.79761 11.8795 1.45806 11.8782C1.22126 11.8776 0.98504 11.8626 0.75 11.8326C2.11076 12.7588 3.69359 13.25 5.31 13.2475V13.25Z" fill="#9BA1A6" stroke="#9BA1A6" stroke-width="1.5" stroke-linecap="round" stroke-linejoin="round"/>
</svg>
