<svg viewBox="0 0 121 28" xmlns="http://www.w3.org/2000/svg" fill="none">

 <g>
  <path id="svg_1" fill="currentColor" d="m34.4508,22.7445c-0.0172,0.0011 -0.0344,-0.0014 -0.0505,-0.0073c-0.0161,-0.0058 -0.0307,-0.0149 -0.043,-0.0267c-0.0122,-0.0117 -0.0218,-0.0258 -0.028,-0.0415c-0.0062,-0.0156 -0.009,-0.0323 -0.0082,-0.049l0,-17.37919c-0.0008,-0.01673 0.002,-0.03344 0.0082,-0.04904c0.0062,-0.01561 0.0158,-0.02975 0.028,-0.0415c0.0123,-0.01176 0.0269,-0.02085 0.043,-0.0267c0.0161,-0.00584 0.0333,-0.00831 0.0505,-0.00722l7.5457,0c2.9797,0 5.0596,2.22708 5.0596,5.15755c0,2.9305 -2.0799,5.1576 -5.0596,5.1576l-5.7483,0c-0.017,-0.0008 -0.034,0.0018 -0.0498,0.0078c-0.0159,0.006 -0.0303,0.0151 -0.0423,0.0268c-0.0121,0.0118 -0.0214,0.0258 -0.0276,0.0413c-0.0061,0.0154 -0.0088,0.032 -0.008,0.0485l0,7.0622c0.0011,0.0167 -0.0014,0.0333 -0.0074,0.0489c-0.006,0.0156 -0.0154,0.0298 -0.0275,0.0416c-0.0121,0.0118 -0.0266,0.0209 -0.0426,0.0268c-0.016,0.0058 -0.0331,0.0083 -0.0502,0.0072l-1.542,0.0019zm1.7974,-16.1252c-0.0172,-0.00083 -0.0343,0.00188 -0.0503,0.00796c-0.016,0.00608 -0.0305,0.01539 -0.0426,0.02732c-0.0121,0.01194 -0.0214,0.02622 -0.0274,0.04191c-0.006,0.01569 -0.0085,0.03245 -0.0074,0.04916l0,7.06025c-0.0011,0.0167 0.0014,0.0334 0.0074,0.049c0.006,0.0156 0.0154,0.0297 0.0275,0.0415c0.0121,0.0118 0.0266,0.0209 0.0426,0.0268c0.016,0.0059 0.0331,0.0083 0.0502,0.0072l5.4988,0c2.1573,0 3.5194,-1.8518 3.5194,-3.6546c0,-1.80279 -1.3544,-3.6565 -3.5194,-3.6565l-5.4988,0z"/>
  <path id="svg_2" fill="currentColor" d="m53.6684,9.8147c3.5194,0 5.729,1.5086 5.729,4.507l0,5.233c0,1.303 0.3347,1.6783 1.4124,1.6783l0.2825,0c0.0171,-0.0011 0.0343,0.0014 0.0504,0.0072c0.0161,0.0059 0.0308,0.015 0.043,0.0267c0.0122,0.0118 0.0218,0.0259 0.028,0.0415c0.0063,0.0156 0.0091,0.0323 0.0082,0.0491l0,1.2521c0.0009,0.0167 -0.0019,0.0334 -0.0082,0.0491c-0.0062,0.0156 -0.0158,0.0297 -0.028,0.0414c-0.0122,0.0118 -0.0269,0.0209 -0.043,0.0267c-0.0161,0.0059 -0.0333,0.0084 -0.0504,0.0073l-0.2825,0c-1.7723,0 -2.4921,-0.4752 -2.9274,-1.5086c-0.0047,-0.0243 -0.0166,-0.0466 -0.0341,-0.0644c-0.0176,-0.0177 -0.0401,-0.03 -0.0648,-0.0355c-0.0247,-0.0054 -0.0505,-0.0036 -0.0741,0.0051c-0.0237,0.0087 -0.0443,0.0239 -0.0592,0.0438c-0.3869,0.3772 -1.6175,1.7274 -4.8041,1.8028c-3.3898,0 -5.2395,-1.5765 -5.2395,-3.8564c0,-2.2798 1.8497,-3.7545 5.4968,-3.7545l3.2118,0c0.8223,0 1.2847,0 1.2847,-1.0523c0,-1.303 -0.3096,-3.004 -3.9315,-3.004c-2.5695,0 -3.7497,1.0504 -3.7497,3.0285c0.0008,0.0169 -0.002,0.0336 -0.0082,0.0493c-0.0062,0.0157 -0.0157,0.03 -0.0279,0.0419c-0.0122,0.0119 -0.0269,0.0212 -0.043,0.0272c-0.0161,0.0061 -0.0333,0.0088 -0.0505,0.008l-1.5479,0c-0.0172,0.0008 -0.0343,-0.0019 -0.0503,-0.008c-0.016,-0.0061 -0.0305,-0.0154 -0.0426,-0.0273c-0.0121,-0.0119 -0.0214,-0.0262 -0.0274,-0.0419c-0.006,-0.0157 -0.0085,-0.0324 -0.0074,-0.0492c0.0058,-3.0473 2.4727,-4.5239 5.5549,-4.5239zm3.9315,7.1866c0.0009,-0.0168 -0.0019,-0.0335 -0.0082,-0.0492c-0.0062,-0.0157 -0.0157,-0.03 -0.0279,-0.0419c-0.0122,-0.0119 -0.0268,-0.0212 -0.0429,-0.0272c-0.0161,-0.0061 -0.0334,-0.0088 -0.0506,-0.008l-4.2566,0c-3.2621,0 -3.8019,1.1522 -3.8019,2.2535c0,1.1522 0.977,2.3534 3.442,2.3534c3.3666,0 4.7016,-2.1271 4.7539,-3.8809l-0.0078,-0.5997z"/>
  <path id="svg_3" fill="currentColor" d="m74.6583,22.2452c0,3.583 -2.3121,5.7346 -6.0889,5.7346c-3.2369,0 -5.4736,-1.6783 -5.729,-3.6301c-0.0011,-0.0167 0.0014,-0.0334 0.0074,-0.0491c0.006,-0.0157 0.0154,-0.03 0.0274,-0.0419c0.0121,-0.012 0.0266,-0.0213 0.0426,-0.0273c0.016,-0.0061 0.0331,-0.0088 0.0503,-0.008l1.4898,0c0.0397,0.0005 0.0782,0.0129 0.1104,0.0355c0.0322,0.0226 0.0565,0.0543 0.0696,0.0908c0.2573,0.975 1.5923,2.1272 3.9315,2.1272c3.3898,0 4.2392,-2.0536 4.2895,-4.2317l0,-0.9768c-0.0053,-0.0236 -0.0174,-0.0453 -0.035,-0.0624c-0.0175,-0.0171 -0.0397,-0.0289 -0.064,-0.0341c-0.0242,-0.0052 -0.0495,-0.0034 -0.0728,0.005c-0.0232,0.0084 -0.0435,0.0231 -0.0584,0.0425c-0.5398,0.626 -1.8246,1.8028 -4.3418,1.8028c-3.6239,0 -6.1159,-2.6797 -6.1159,-6.5851c0,-3.9054 2.3643,-6.58511 6.1159,-6.58511c0.8131,-0.01367 1.6199,0.13981 2.368,0.45041c0.7481,0.3106 1.4206,0.7714 1.9738,1.3524c0.1025,0.0999 0.205,0.049 0.2302,-0.0509l0.2573,-1.3766c0.0252,-0.0755 0.0503,-0.1264 0.1277,-0.1264l1.2847,0c0.0173,-0.0008 0.0345,0.0019 0.0506,0.008c0.0161,0.006 0.0307,0.0153 0.043,0.0272c0.0122,0.0119 0.0217,0.0262 0.0279,0.0419c0.0062,0.0157 0.009,0.0324 0.0082,0.0493l0,12.0179zm-6.116,-0.7279c2.879,0 4.3166,-2.0743 4.3166,-5.0915c0,-3.0173 -1.4376,-5.0916 -4.3166,-5.0916c-2.879,0 -4.572,2.0743 -4.572,5.0916c0,3.0172 1.6949,5.0915 4.572,5.0915z"/>
  <path id="svg_4" fill="currentColor" d="m83.3919,22.9856c-4.0322,0 -6.3714,-2.6797 -6.3714,-6.5851c0,-3.9054 2.3392,-6.58695 6.3714,-6.58695c4.0322,0 6.3714,2.67965 6.3714,6.58695c0,3.9073 -2.3625,6.5851 -6.3714,6.5851zm0,-11.6691c-2.8519,0 -4.572,2.0743 -4.572,5.0916c0,3.0172 1.7201,5.0915 4.572,5.0915c2.8519,0 4.5739,-2.0743 4.5739,-5.0915c0,-3.0173 -1.722,-5.0916 -4.5739,-5.0916z"/>
  <path id="svg_5" fill="currentColor" d="m104.173,22.6193c0.001,0.0166 -0.001,0.0333 -0.007,0.0489c-0.006,0.0156 -0.016,0.0298 -0.028,0.0416c-0.012,0.0117 -0.026,0.0209 -0.042,0.0267c-0.016,0.0059 -0.033,0.0084 -0.05,0.0072l-1.285,0c-0.078,0 -0.103,-0.049 -0.128,-0.1244l-0.257,-1.3766c-0.004,-0.0255 -0.016,-0.0491 -0.035,-0.0671c-0.019,-0.018 -0.044,-0.0293 -0.07,-0.0324c-0.026,-0.003 -0.053,0.0026 -0.075,0.0158c-0.023,0.0132 -0.041,0.0333 -0.05,0.0573c-0.18,0.2508 -1.44,1.7783 -4.3442,1.7783c-4.007,0 -6.114,-2.6797 -6.114,-6.5851c0,-3.9055 2.2367,-6.58512 6.114,-6.58512c2.8522,0 4.1112,1.50862 4.3442,1.82732c0.075,0.1244 0.23,0.0754 0.23,-0.0245l0,-6.38523c-0.001,-0.01663 0.001,-0.03331 0.007,-0.04892c0.006,-0.0156 0.016,-0.02977 0.028,-0.04156c0.012,-0.01179 0.026,-0.02092 0.042,-0.02678c0.016,-0.00586 0.033,-0.00832 0.05,-0.0072l1.548,0c0.017,-0.00112 0.034,0.00134 0.051,0.0072c0.016,0.00586 0.03,0.01499 0.042,0.02678c0.012,0.01179 0.022,0.02596 0.028,0.04156c0.006,0.01561 0.008,0.03229 0.007,0.04892l-0.006,17.37733zm-6.1138,-1.1315c2.8768,0 4.3168,-2.0743 4.3168,-5.0915c0,-3.0173 -1.44,-5.0916 -4.3168,-5.0916c-2.8771,0 -4.572,2.0743 -4.572,5.0916c0,3.0172 1.6949,5.0953 4.572,5.0953l0,-0.0038z"/>
  <path id="svg_6" fill="currentColor" d="m112.937,9.76797c3.519,0 5.727,1.50863 5.727,4.50693l0,5.233c0,1.3012 0.334,1.6765 1.414,1.6765l0.282,0c0.018,-0.0008 0.035,0.0019 0.051,0.0079c0.016,0.0061 0.03,0.0154 0.042,0.0274c0.012,0.0119 0.022,0.0262 0.028,0.0419c0.006,0.0157 0.008,0.0324 0.007,0.0491l0,1.2465c0.001,0.0167 -0.001,0.0333 -0.007,0.0489c-0.006,0.0156 -0.016,0.0298 -0.028,0.0416c-0.012,0.0118 -0.026,0.0209 -0.042,0.0268c-0.016,0.0058 -0.033,0.0083 -0.051,0.0072l-0.288,0c-1.772,0 -2.492,-0.4752 -2.929,-1.5086c-0.005,-0.0242 -0.016,-0.0465 -0.034,-0.0642c-0.017,-0.0176 -0.04,-0.0298 -0.065,-0.0351c-0.024,-0.0052 -0.05,-0.0033 -0.073,0.0057c-0.024,0.0089 -0.044,0.0244 -0.058,0.0445c-0.387,0.3772 -1.62,1.7274 -4.805,1.8028c-3.391,0 -5.241,-1.5784 -5.241,-3.8564c0,-2.278 1.85,-3.7564 5.497,-3.7564l3.212,0c0.822,0 1.284,0 1.284,-1.0504c0,-1.303 -0.307,-3.0059 -3.929,-3.0059c-2.57,0 -3.752,1.0523 -3.752,3.0304c0.001,0.0167 -0.001,0.0334 -0.007,0.049c-0.006,0.0156 -0.016,0.0297 -0.028,0.0415c-0.012,0.0118 -0.026,0.0209 -0.042,0.0268c-0.016,0.0059 -0.034,0.0083 -0.051,0.0072l-1.547,0c-0.018,0.0011 -0.035,-0.0014 -0.051,-0.0072c-0.016,-0.0059 -0.031,-0.015 -0.043,-0.0267c-0.012,-0.0118 -0.022,-0.0259 -0.028,-0.0415c-0.006,-0.0156 -0.009,-0.0323 -0.008,-0.0491c0.012,-3.0455 2.478,-4.52013 5.563,-4.52013zm3.929,7.18473c0.001,-0.0166 -0.001,-0.0333 -0.007,-0.0489c-0.006,-0.0156 -0.016,-0.0298 -0.028,-0.0415c-0.012,-0.0118 -0.026,-0.021 -0.042,-0.0268c-0.016,-0.0059 -0.033,-0.0083 -0.051,-0.0072l-4.256,0c-3.264,0 -3.804,1.1522 -3.804,2.2535c0,1.1522 0.967,2.3534 3.444,2.3534c3.365,0 4.702,-2.1271 4.752,-3.8809l-0.008,-0.6016z"/>
  <path id="svg_7" fill="currentColor" d="m8.41835,0.00166l8.20895,8.00086c-2.1771,2.12198 -5.13,3.31408 -8.20895,3.31408c-3.07896,0 -6.03183,-1.1921 -8.20898,-3.31407l8.20898,-8.00087z"/>
  <path id="svg_8" fill="currentColor" d="m28.9371,8.00086l-8.209,8.00084c-2.1772,-2.1219 -3.4003,-4.9999 -3.4003,-8.00084c0,-3.0009 1.2231,-5.8789 3.4003,-8.00086l8.209,8.00086z"/>
  <path id="svg_9" fill="currentColor" d="m20.7291,27.9972l-8.209,-8.0009c2.1772,-2.1219 5.1301,-3.314 8.209,-3.314c3.079,0 6.0319,1.1921 8.209,3.314l-8.209,8.0009z"/>
  <path id="svg_10" fill="currentColor" d="m0.21509,19.9991l8.20899,-8.0008c2.17712,2.1219 3.40032,4.9999 3.40032,8.0008c0,3.0009 -1.2232,5.8789 -3.40032,8.0009l-8.20899,-8.0009z"/>
 </g>
</svg>