<svg viewBox="0 0 29 28" xmlns="http://www.w3.org/2000/svg" fill="none">
 <g>
  <path id="svg_7" fill="currentColor" d="m8.41835,0.00166l8.20895,8.00086c-2.1771,2.12198 -5.13,3.31408 -8.20895,3.31408c-3.07896,0 -6.03183,-1.1921 -8.20898,-3.31407l8.20898,-8.00087z"/>
  <path id="svg_8" fill="currentColor" d="m28.9371,8.00086l-8.209,8.00084c-2.1772,-2.1219 -3.4003,-4.9999 -3.4003,-8.00084c0,-3.0009 1.2231,-5.8789 3.4003,-8.00086l8.209,8.00086z"/>
  <path id="svg_9" fill="currentColor" d="m20.7291,27.9972l-8.209,-8.0009c2.1772,-2.1219 5.1301,-3.314 8.209,-3.314c3.079,0 6.0319,1.1921 8.209,3.314l-8.209,8.0009z"/>
  <path id="svg_10" fill="currentColor" d="m0.21509,19.9991l8.20899,-8.0008c2.17712,2.1219 3.40032,4.9999 3.40032,8.0008c0,3.0009 -1.2232,5.8789 -3.40032,8.0009l-8.20899,-8.0009z"/>
 </g>
</svg>