<svg viewBox="0 0 116 114" fill="none" xmlns="http://www.w3.org/2000/svg">
<path d="M36.7905 75.8431H28.9389C27.2482 75.8431 25.8821 74.477 25.8821 72.7863V69.1431C25.8664 68.7086 25.568 68.3318 25.1493 68.2218C23.6104 67.7193 22.1186 67.0912 20.6896 66.3375C20.3075 66.1124 19.8207 66.1648 19.4962 66.4632L18.1353 67.845C17.5647 68.4207 16.79 68.7453 15.9787 68.7453C15.1673 68.7453 14.3926 68.4207 13.8221 67.845L8.71332 62.7362C8.15324 62.1814 7.82871 61.4328 7.813 60.6425C7.83394 59.8521 8.15324 59.1036 8.71332 58.5487L10.0742 56.9994C10.3778 56.6749 10.4354 56.1933 10.2208 55.806C9.44612 54.3927 8.81795 52.9061 8.33649 51.3672C8.17946 50.9851 7.80782 50.7286 7.39431 50.7181H3.75112C2.07089 50.7181 0.704761 49.3625 0.694309 47.6822V39.7679C0.704779 38.0825 2.06567 36.7216 3.75112 36.7111H7.39431C7.81306 36.7059 8.18469 36.4494 8.33649 36.0621C8.81806 34.518 9.45141 33.0262 10.2208 31.6024C10.4302 31.2151 10.3674 30.7387 10.0742 30.409L8.71332 29.0481C8.13754 28.4775 7.813 27.7028 7.813 26.8915C7.813 26.0801 8.13754 25.3055 8.71332 24.7349C8.91223 24.536 9.17919 24.426 9.45661 24.426C9.73403 24.426 10.001 24.536 10.1999 24.7349C10.5977 25.1432 10.5977 25.7922 10.1999 26.2006C9.82302 26.5774 9.82302 27.1846 10.1999 27.5615L11.5608 28.9433C12.5239 29.9116 12.7281 31.3982 12.0633 32.5865C11.3514 33.9212 10.7704 35.3241 10.3255 36.774C9.9067 38.0355 8.72375 38.8782 7.3942 38.8677H3.75101C3.22234 38.8782 2.79835 39.3022 2.78789 39.8308V47.6824C2.79835 48.2059 3.22757 48.6246 3.75101 48.6246H7.3942C8.7185 48.6246 9.89625 49.4674 10.3255 50.7184C10.7704 52.1683 11.3514 53.5711 12.0633 54.9059C12.7228 56.1045 12.5187 57.5911 11.5608 58.57L10.1999 59.9309C10.0115 60.1088 9.90677 60.3601 9.90677 60.6218C9.912 60.8731 10.0062 61.1086 10.1789 61.2918L15.2877 66.4006C15.6698 66.7774 16.2875 66.7774 16.6695 66.4006L18.0304 65.0397C18.9988 64.0661 20.5011 63.8619 21.6945 64.5372C22.9979 65.2333 24.3641 65.8091 25.7774 66.254C27.0755 66.6413 27.9653 67.8295 27.9758 69.1852V72.8284C27.9758 73.3623 28.405 73.7915 28.9389 73.7915H36.7905C37.3244 73.7915 37.7536 73.3623 37.7536 72.8284V69.1434C37.7641 67.7877 38.6539 66.5995 39.952 66.2122C41.3653 65.7672 42.7314 65.1915 44.0349 64.4953C45.2283 63.8201 46.7305 64.0243 47.6989 64.9978L49.0598 66.3587C49.4367 66.7356 50.0439 66.7356 50.4208 66.3587L55.5295 61.1872C55.7127 61.0144 55.8174 60.7684 55.8226 60.5172C55.8226 60.2554 55.7179 60.0042 55.5295 59.8262L54.1686 58.4653C53.2578 57.5074 53.0589 56.0785 53.6661 54.906C54.378 53.5713 54.9538 52.1684 55.3829 50.7185C55.8121 49.4675 56.9898 48.6248 58.3142 48.6248H61.9783C62.5017 48.6248 62.9309 48.206 62.9414 47.6826V39.7683C62.9309 39.2396 62.5069 38.8156 61.9783 38.8051H58.3351C57.0108 38.8104 55.8278 37.9676 55.4038 36.7114C54.9537 35.2667 54.3726 33.8639 53.666 32.5239C53.0064 31.3252 53.2106 29.8387 54.1685 28.8598L55.5294 27.4989C55.9062 27.122 55.9062 26.5148 55.5294 26.138L50.4206 21.0292C50.0385 20.6733 49.4418 20.6733 49.0597 21.0292L47.6988 22.411C46.72 23.3689 45.2335 23.5731 44.0347 22.9135C42.7366 22.2017 41.3652 21.6207 39.9519 21.1757C38.6537 20.7884 37.7639 19.6001 37.7535 18.2445V14.5804C37.743 14.0517 37.319 13.6277 36.7903 13.6172H28.9387C28.4101 13.6277 27.9861 14.0517 27.9756 14.5804V18.2235C27.9652 19.5792 27.0753 20.7674 25.7772 21.1548C24.3639 21.5997 22.9926 22.1807 21.6944 22.8926C20.4957 23.5522 19.0091 23.348 18.0303 22.3901L16.6485 21.0083C16.2716 20.6315 15.6644 20.6315 15.2876 21.0083C14.8845 21.4114 14.225 21.4114 13.8219 21.0083C13.4188 20.6053 13.4188 19.9458 13.8219 19.5426C15.0258 18.3911 16.9311 18.3911 18.1351 19.5426L19.496 20.9035C19.8205 21.2019 20.3073 21.2543 20.6894 21.0292C22.1184 20.2754 23.6102 19.6526 25.1491 19.1658C25.5678 19.0401 25.8662 18.6633 25.8819 18.2236V14.5804C25.8923 12.8949 27.2532 11.534 28.9387 11.5236H36.7903C38.4757 11.5341 39.8366 12.8949 39.8471 14.5804V18.2236C39.8628 18.6633 40.1612 19.0402 40.5799 19.1658C42.1188 19.6526 43.6106 20.2807 45.0396 21.0292C45.4112 21.2595 45.898 21.2071 46.2121 20.9035L47.5939 19.5426C48.7978 18.3911 50.7031 18.3911 51.9071 19.5426L57.0158 24.6514C57.5916 25.2219 57.9161 25.9966 57.9161 26.808C57.9161 27.6194 57.5916 28.394 57.0158 28.9646L55.6549 30.3255C55.3461 30.6448 55.2885 31.1316 55.5083 31.5189C56.2778 32.9427 56.9112 34.4345 57.3926 35.9786C57.5183 36.3973 57.8951 36.6957 58.3348 36.7114H61.978C63.6635 36.7219 65.0244 38.0828 65.0348 39.7682V47.6198C65.0453 48.4364 64.7312 49.2267 64.1554 49.8078C63.5797 50.3888 62.7945 50.7185 61.9779 50.7185H58.3138C57.8742 50.7395 57.5025 51.0483 57.3926 51.4723C56.911 53.0111 56.2777 54.4977 55.5083 55.911C55.2885 56.2984 55.346 56.7852 55.6549 57.1045L57.0158 58.4654C57.5758 59.0202 57.8951 59.7687 57.9161 60.5591C57.9004 61.3495 57.5758 62.098 57.0158 62.6529L51.907 67.7616C51.3365 68.3374 50.5618 68.6619 49.7504 68.6619C48.939 68.6619 48.1644 68.3374 47.5938 67.7616L46.212 66.3798C45.8979 66.0762 45.4111 66.0239 45.0395 66.2542C43.6105 67.0132 42.1187 67.6466 40.5799 68.1385C40.1611 68.2484 39.8627 68.6253 39.847 69.0597V72.7029C39.868 73.53 39.5592 74.3255 38.9834 74.917C38.4076 75.5085 37.6172 75.8435 36.7902 75.8435L36.7905 75.8431ZM11.2675 22.097L11.0162 22.3273C10.7179 22.6309 10.6341 23.0811 10.8016 23.4684C10.9639 23.8558 11.346 24.107 11.77 24.107C12.0474 24.1123 12.3144 23.9971 12.5028 23.793L12.7541 23.5626C13.1571 23.1491 13.1571 22.4896 12.7541 22.076C12.5552 21.8824 12.283 21.7724 12.0056 21.7777C11.7281 21.7829 11.4612 21.8981 11.2675 22.097L11.2675 22.097ZM32.875 33.7383C33.4508 33.7383 33.9219 33.2672 33.9219 32.6914C33.9219 32.1156 33.4508 31.6445 32.875 31.6445C27.0125 31.6655 22.0189 35.9105 21.061 41.6997C20.0979 47.4837 23.4584 53.1159 29.0016 55.0264C34.5448 56.937 40.6585 54.5658 43.4642 49.4152C46.2751 44.2699 44.956 37.8472 40.3498 34.2196C39.8839 33.8637 39.2244 33.9474 38.8632 34.408C38.5125 34.8634 38.5962 35.5229 39.0516 35.8737C42.8884 38.8521 44.019 44.1597 41.7264 48.4467C39.439 52.7284 34.393 54.7332 29.7867 53.1995C25.1805 51.6659 22.3487 47.0334 23.0867 42.2335C23.8248 37.4336 27.9129 33.8637 32.7704 33.78L32.875 33.7383ZM36.9368 34.5967C37.0729 34.6595 37.2247 34.6962 37.3765 34.7014C37.79 34.7014 38.1616 34.4501 38.3187 34.0733C38.4391 33.822 38.4495 33.5341 38.3501 33.2724C38.2506 33.0107 38.0517 32.8013 37.7952 32.6914C37.4288 32.5187 37.0519 32.3721 36.6646 32.2517C36.1255 32.0947 35.5549 32.3983 35.3822 32.9322C35.2094 33.4713 35.4869 34.0471 36.0155 34.2408L36.9368 34.5967ZM112.564 50.5306H109.465C109.161 50.5254 108.9 50.3213 108.816 50.0281C108.413 48.7091 107.879 47.4319 107.225 46.2174C107.031 45.9819 107.031 45.6364 107.225 45.4009L108.376 44.2493C108.9 43.7363 109.193 43.0349 109.193 42.3022C109.198 41.5693 108.9 40.868 108.376 40.355L104.063 36.0629C102.99 34.995 101.263 34.995 100.19 36.0629L99.0171 37.2144C98.7763 37.3924 98.4413 37.3924 98.2006 37.2144C96.9862 36.5549 95.709 36.0105 94.3899 35.6023C94.0967 35.5185 93.8926 35.2568 93.8874 34.9532V31.8753C93.8874 30.3469 92.652 29.1116 91.1236 29.1116H84.5493C83.0314 29.1221 81.8065 30.3574 81.8065 31.8753V35.016C81.7908 35.3249 81.5814 35.5866 81.283 35.6651C79.964 36.0734 78.6868 36.6178 77.4723 37.2773C77.2316 37.4552 76.8966 37.4552 76.6558 37.2773L75.5042 36.0629C74.4259 34.9951 72.6881 34.9951 71.6099 36.0629L67.2758 40.397C66.7576 40.91 66.4697 41.6114 66.4802 42.3441C66.4749 43.0717 66.7628 43.7731 67.2758 44.2913L68.4483 45.4429C68.621 45.6889 68.621 46.0134 68.4483 46.2594C67.794 47.479 67.2549 48.751 66.8361 50.0701C66.7629 50.358 66.5064 50.5622 66.208 50.5726H63.193C61.6751 50.5831 60.4502 51.8184 60.4502 53.3364V59.9317C60.4502 61.4497 61.675 62.685 63.193 62.6955H66.3755C66.6739 62.7059 66.9304 62.9101 67.0036 63.198C67.3805 64.5066 67.8725 65.7838 68.4693 67.0087C68.6368 67.2547 68.6368 67.5792 68.4693 67.8252L67.2968 68.9768C66.2395 70.0603 66.2395 71.7877 67.2968 72.8711L71.6309 77.2052C72.7092 78.273 74.4471 78.273 75.5252 77.2052L76.6768 76.0327C76.9228 75.8652 77.2474 75.8652 77.4934 76.0327C78.713 76.687 79.985 77.2261 81.3041 77.6449C81.6024 77.7129 81.817 77.9694 81.8275 78.273V81.288C81.8275 82.8007 83.0576 84.0308 84.5703 84.0308H91.2075C92.7255 84.0308 93.9608 82.806 93.9713 81.288V78.1892C93.9713 77.8909 94.1806 77.6292 94.4738 77.5611C95.7928 77.1424 97.0648 76.6032 98.2844 75.949C98.5305 75.7762 98.855 75.7762 99.101 75.949L100.274 77.1215C101.347 78.1893 103.074 78.1893 104.147 77.1215L108.481 72.7874C109.004 72.2744 109.303 71.573 109.303 70.8402C109.303 70.1074 109.004 69.406 108.481 68.8931L107.329 67.7415C107.183 67.5844 107.12 67.3646 107.162 67.1552C107.141 67.082 107.141 66.9982 107.162 66.9249C107.35 66.4224 107.141 65.8623 106.67 65.6059C106.199 65.3494 105.613 65.4855 105.299 65.9199C105.168 66.1869 105.073 66.4695 105.005 66.7574C104.843 67.6525 105.126 68.5738 105.759 69.2281L106.911 70.3797C107.047 70.4948 107.12 70.6623 107.12 70.8403C107.12 71.0183 107.047 71.1858 106.911 71.3009L102.598 75.635C102.331 75.881 101.922 75.881 101.655 75.635L100.504 74.4835C99.6349 73.6145 98.2949 73.4261 97.2166 74.0228C96.1174 74.6143 94.9554 75.1011 93.762 75.4675C92.6052 75.8287 91.8096 76.8912 91.7938 78.1057V81.2882C91.7938 81.4661 91.7205 81.6336 91.5949 81.754C91.4693 81.8744 91.3018 81.9425 91.1238 81.9372H84.5495C84.1936 81.9372 83.9004 81.6441 83.9004 81.2882V78.1894C83.8847 76.9698 83.0786 75.902 81.9113 75.5512C80.7231 75.1796 79.5768 74.6928 78.4776 74.1066C77.3941 73.5099 76.0488 73.6983 75.1694 74.5672L74.0178 75.7188C73.8974 75.8392 73.7299 75.9124 73.5572 75.9124C73.3845 75.9124 73.217 75.8392 73.0966 75.7188L68.7625 71.3847C68.6421 71.2643 68.5688 71.0968 68.5688 70.924C68.5688 70.7513 68.6421 70.5838 68.7625 70.4634L69.914 69.3119C70.7725 68.4272 70.9609 67.0872 70.3747 66.0037C69.7832 64.9097 69.2964 63.7581 68.93 62.5699C68.5898 61.4341 67.5639 60.6437 66.3757 60.6017H63.1932C63.0152 60.6017 62.8477 60.5284 62.7273 60.4028C62.6069 60.2772 62.5389 60.1097 62.5441 59.9317V53.2946C62.5389 53.1166 62.607 52.9491 62.7273 52.8235C62.8477 52.6979 63.0152 52.6246 63.1932 52.6246H66.3757C67.5377 52.5827 68.5584 51.8237 68.93 50.7192C69.2964 49.5258 69.7832 48.3638 70.3747 47.2646C70.9609 46.1863 70.7777 44.8515 69.914 43.9774L68.7625 42.8258C68.6421 42.7055 68.574 42.538 68.574 42.3652C68.5688 42.1873 68.6369 42.0145 68.7625 41.8836L73.0966 37.5705C73.217 37.4501 73.3845 37.3768 73.5572 37.3768C73.7299 37.3768 73.8974 37.4501 74.0178 37.5705L75.1694 38.722C76.054 39.5805 77.3941 39.7689 78.4776 39.1826C79.5716 38.5807 80.7179 38.0887 81.9113 37.717C83.0891 37.382 83.9004 36.3037 83.9004 35.0788V31.8754C83.8952 31.6974 83.9632 31.5299 84.0836 31.4043C84.204 31.2786 84.3715 31.2054 84.5495 31.2054H91.1866C91.3646 31.2054 91.5373 31.2734 91.663 31.399C91.7886 31.5247 91.8566 31.6974 91.8566 31.8754V35.0161C91.8619 36.2304 92.6575 37.3034 93.8248 37.6542C95.0235 38.0311 96.1803 38.5179 97.2795 39.1199C98.3578 39.7062 99.6926 39.523 100.567 38.6593L101.718 37.5077C101.985 37.2617 102.393 37.2617 102.66 37.5077L106.974 41.8209C107.104 41.9466 107.178 42.1193 107.183 42.3025C107.178 42.4752 107.099 42.6427 106.974 42.7631L105.822 43.9147C104.958 44.7993 104.78 46.1446 105.382 47.2229C105.974 48.3378 106.455 49.5103 106.827 50.7195C107.183 51.8815 108.251 52.6771 109.465 52.6877H112.543C112.721 52.6877 112.894 52.7557 113.019 52.8814C113.145 53.007 113.213 53.1797 113.213 53.3577V59.932C113.213 60.3036 112.915 60.602 112.543 60.602H109.465C108.251 60.6072 107.178 61.4029 106.827 62.5702L106.68 62.9889C106.497 63.5647 106.817 64.1876 107.392 64.3707C107.968 64.5539 108.591 64.2346 108.774 63.6589L108.921 63.1982C109.004 62.9051 109.266 62.701 109.57 62.6957H112.648C113.38 62.6957 114.082 62.4026 114.6 61.8844C115.118 61.3662 115.411 60.6648 115.411 59.932V53.2949C115.411 52.5411 115.108 51.824 114.563 51.3006C114.024 50.7823 113.291 50.5049 112.543 50.5311L112.564 50.5306ZM87.8782 66.9872C92.1129 66.9872 95.9287 64.4381 97.5514 60.5228C99.1688 56.6126 98.2738 52.1112 95.2797 49.1171C92.2856 46.123 87.784 45.228 83.8741 46.8454C79.9587 48.468 77.4096 52.2839 77.4096 56.5186C77.4096 56.796 77.5196 57.0629 77.7185 57.2566C77.9121 57.4555 78.1791 57.5654 78.4565 57.5654C78.7339 57.5654 79.0009 57.4555 79.1946 57.2566C79.3935 57.0629 79.5034 56.796 79.5034 56.5186C79.5034 53.132 81.5447 50.075 84.675 48.7822C87.8051 47.4841 91.4063 48.2012 93.7985 50.5986C96.1959 52.9907 96.9129 56.592 95.6149 59.7221C94.322 62.8522 91.2651 64.8937 87.8785 64.8937C85.6016 64.9042 83.4241 63.962 81.8694 62.2975C81.4716 61.8735 80.8068 61.8578 80.3828 62.2556C79.9588 62.6534 79.9431 63.3182 80.3409 63.7422C82.2933 65.8255 85.0257 67.0032 87.8784 66.9875L87.8782 66.9872ZM80.3198 59.9731C80.2361 59.8265 80.1733 59.6747 80.1314 59.5125C80.032 59.2507 79.833 59.0361 79.5766 58.9262C79.3201 58.8111 79.0322 58.8058 78.7705 58.9053C78.5088 58.9995 78.2994 59.1932 78.1842 59.4444C78.0691 59.7009 78.0638 59.9888 78.1633 60.2453C78.2261 60.4442 78.3046 60.6431 78.3936 60.8315C78.5768 61.1979 78.9485 61.4335 79.3567 61.4387C79.4928 61.4701 79.6394 61.4701 79.7755 61.4387C80.0477 61.3236 80.2623 61.1037 80.367 60.8263C80.4717 60.5489 80.4507 60.24 80.3199 59.9731L80.3198 59.9731ZM33.7548 92.8661C34.0323 92.8661 34.2992 92.7561 34.4929 92.5572C34.6918 92.3636 34.8017 92.0966 34.8017 91.8192V91.5261C34.8017 91.2486 34.6918 90.9817 34.4929 90.788C34.2992 90.5891 34.0323 90.4792 33.7548 90.4792C33.1791 90.4792 32.708 90.9503 32.708 91.5261V91.8192C32.7184 92.395 33.1791 92.8556 33.7548 92.8661ZM73.7458 86.3127H71.3379C71.1966 86.297 71.0815 86.1975 71.0448 86.0614C70.7203 85.0198 70.2963 84.0096 69.7886 83.0464C69.7048 82.9365 69.7048 82.7795 69.7886 82.6695L70.6889 81.7692C71.1391 81.3243 71.3955 80.7171 71.3955 80.0838C71.3955 79.4504 71.139 78.8432 70.6889 78.3983L67.2971 75.0065C66.3601 74.0905 64.8631 74.0905 63.9262 75.0065L63.0259 75.9068C62.9159 75.9906 62.7589 75.9906 62.649 75.9068C61.6859 75.3886 60.6756 74.9594 59.634 74.6296C59.4979 74.593 59.3984 74.4779 59.3827 74.3365V71.9915C59.3932 71.3582 59.1524 70.7457 58.7127 70.2904C58.2731 69.835 57.6711 69.5733 57.0377 69.5628H51.8243C50.5053 69.5628 49.4375 70.6306 49.4375 71.9496V74.3575C49.4323 74.4936 49.3381 74.614 49.2072 74.6506C48.1603 74.9751 47.1554 75.4043 46.1922 75.9278C46.0718 76.0063 45.9148 76.0063 45.7944 75.9278L44.8941 75.0275C43.9571 74.1114 42.4601 74.1114 41.5232 75.0275L38.1314 78.4193C37.2154 79.3562 37.2154 80.8532 38.1314 81.7902L39.0526 82.6905C39.1364 82.8004 39.1364 82.9574 39.0526 83.0674C38.5396 84.0357 38.1157 85.0408 37.7754 86.0824C37.7545 86.2184 37.6446 86.3231 37.5032 86.3336H35.0954C33.7763 86.3336 32.7086 87.4014 32.7086 88.7204C32.7191 89.2962 33.1797 89.7568 33.7555 89.7673C34.0329 89.7673 34.2998 89.6574 34.4935 89.4585C34.6924 89.2648 34.8023 88.9978 34.8023 88.7204C34.8023 88.5582 34.9332 88.4273 35.0955 88.4273H37.5242C38.5763 88.4168 39.5029 87.7206 39.8064 86.7105C40.0995 85.7945 40.4711 84.9046 40.9161 84.0514C41.4343 83.1197 41.272 81.9576 40.5182 81.2039L39.6179 80.3036C39.5132 80.1936 39.5132 80.0157 39.6179 79.9058L43.0097 76.5139C43.1092 76.3831 43.3081 76.3831 43.4075 76.5139L44.3288 77.4143C45.0878 78.1628 46.2446 78.3251 47.1763 77.8121C48.0243 77.3515 48.9141 76.9693 49.8354 76.6815C50.8351 76.3726 51.5261 75.4461 51.5313 74.3993V71.9915C51.5313 71.8292 51.6622 71.6983 51.8244 71.6983H57.0378C57.1949 71.6983 57.3205 71.8344 57.31 71.9915V74.3993C57.3152 75.4566 58.0114 76.3832 59.0268 76.6815C59.9481 76.9746 60.838 77.3515 61.6859 77.8121C62.6176 78.3251 63.7744 78.1628 64.5334 77.4143L65.4337 76.5139C65.5437 76.3831 65.7426 76.3831 65.8525 76.5139L69.2443 79.9058C69.349 80.0157 69.349 80.1936 69.2443 80.3036L68.323 81.2039C67.5745 81.9629 67.4122 83.1197 67.9252 84.0514C68.3806 84.9046 68.7575 85.7945 69.0558 86.7105C69.3542 87.7259 70.2807 88.4221 71.338 88.4273H73.7458C73.9081 88.4273 74.039 88.5581 74.039 88.7204V93.9129C74.039 94.0752 73.9081 94.206 73.7458 94.206H71.338C70.2807 94.2113 69.3541 94.9074 69.0558 95.9228C68.7627 96.8336 68.3858 97.7182 67.9252 98.561C67.4227 99.4928 67.585 100.65 68.323 101.409L69.2443 102.33C69.3228 102.45 69.3228 102.607 69.2443 102.728L65.8525 106.119C65.7321 106.224 65.5541 106.224 65.4337 106.119L64.5334 105.156C63.7744 104.408 62.6176 104.245 61.6859 104.758C60.8379 105.219 59.9481 105.591 59.0268 105.868C58.0218 106.177 57.3257 107.098 57.31 108.15V110.579C57.3205 110.736 57.1948 110.872 57.0378 110.872H51.8244C51.6622 110.872 51.5313 110.741 51.5313 110.579V108.213C51.5104 107.166 50.8299 106.25 49.8354 105.931C48.9141 105.659 48.019 105.287 47.1763 104.821C46.2446 104.308 45.0878 104.471 44.3288 105.219L43.4075 106.119C43.2976 106.224 43.1197 106.224 43.0097 106.119L39.6179 102.728C39.5132 102.618 39.5132 102.44 39.6179 102.33L40.5182 101.409C41.2772 100.66 41.4395 99.4928 40.9161 98.5611C40.4554 97.7236 40.0838 96.8389 39.8064 95.9229C39.5028 94.9126 38.5763 94.2165 37.5242 94.2061H35.0955C35.0013 94.2061 34.9175 94.159 34.8652 94.0805C34.5302 93.6094 33.8811 93.489 33.3995 93.8083C32.9336 94.1485 32.8185 94.7923 33.1273 95.274C33.5774 95.9178 34.3102 96.2999 35.0955 96.2999H37.5242C37.6656 96.3104 37.7755 96.415 37.7964 96.5511C38.1576 97.598 38.613 98.603 39.1573 99.5661C39.2411 99.6761 39.2411 99.8331 39.1573 99.943L38.2361 100.843C37.32 101.78 37.32 103.277 38.2361 104.214L41.6279 107.606C42.5753 108.501 44.0514 108.501 44.9988 107.606L45.8991 106.685C46.009 106.601 46.166 106.601 46.276 106.685C47.2495 107.203 48.2651 107.627 49.3119 107.962C49.4427 107.988 49.5369 108.103 49.5422 108.234V110.663C49.5422 111.982 50.61 113.05 51.929 113.05H57.1424C58.451 113.039 59.5083 111.971 59.5083 110.663V108.213C59.524 108.077 59.6235 107.967 59.7595 107.941C60.8012 107.606 61.8114 107.182 62.7745 106.664C62.8845 106.58 63.0415 106.58 63.1514 106.664L64.0517 107.585C64.9992 108.48 66.4753 108.48 67.4226 107.585L70.8144 104.193C71.2646 103.748 71.5211 103.141 71.5211 102.508C71.5211 101.875 71.2646 101.267 70.8144 100.822L69.9141 99.9221C69.8304 99.8122 69.8304 99.6552 69.9141 99.5452C70.4271 98.5769 70.8459 97.5561 71.1704 96.5093C71.207 96.3785 71.3274 96.2843 71.4635 96.279H73.8714C75.1904 96.279 76.2582 95.2112 76.2582 93.8922V88.7206C76.2634 88.0611 75.9965 87.4277 75.5253 86.9723C75.049 86.5169 74.4052 86.2762 73.7457 86.3128L73.7458 86.3127ZM58.3358 86.3127C58.6865 86.3022 59.011 86.1138 59.1942 85.8102C59.4926 85.3129 59.346 84.6638 58.8592 84.3445L58.608 84.1979C58.3672 84.0566 58.0793 84.0199 57.8124 84.0932C57.5454 84.1665 57.3151 84.3497 57.1842 84.5957C56.9016 85.0982 57.0795 85.7368 57.582 86.0195L58.273 85.2029L57.7914 86.1451C57.9537 86.2498 58.1421 86.3073 58.3358 86.3126L58.3358 86.3127ZM54.5251 85.1611C54.7607 85.1297 55.0014 85.1297 55.237 85.1611C55.8128 85.2658 56.3676 84.8784 56.4723 84.3027C56.577 83.7269 56.1896 83.172 55.6139 83.0673C55.216 83.0307 54.8182 83.0307 54.4204 83.0673C50.5575 83.0621 47.1918 85.7002 46.2758 89.4532C45.3545 93.2063 47.1237 97.1006 50.5523 98.875C53.986 100.655 58.184 99.8591 60.7226 96.9436C63.2612 94.0332 63.4759 89.762 61.246 86.6058C60.9058 86.1399 60.2567 86.03 59.7803 86.3545C59.3249 86.7 59.215 87.3438 59.5291 87.8202C60.2828 88.8723 60.6859 90.1286 60.6807 91.4214C60.6807 93.9757 59.1366 96.2737 56.7758 97.2368C54.4099 98.1999 51.6984 97.6398 49.9135 95.8182C48.1286 93.9914 47.6209 91.2696 48.6311 88.9298C49.6465 86.5848 51.9758 85.0878 54.5249 85.1402L54.5251 85.1611ZM43.868 7.69301H45.857C46.4328 7.69301 46.9039 7.22192 46.9039 6.64614C46.9039 6.07035 46.4328 5.59926 45.857 5.59926H43.868C43.2922 5.59926 42.8211 6.07035 42.8211 6.64614C42.8211 7.22192 43.2922 7.69301 43.868 7.69301ZM50.8611 7.69301H52.8502C53.426 7.69301 53.8971 7.22192 53.8971 6.64614C53.8971 6.07035 53.426 5.59926 52.8502 5.59926H50.8611C50.2854 5.59926 49.8143 6.07035 49.8143 6.64614C49.8143 7.22192 50.2854 7.69301 50.8611 7.69301ZM48.3486 12.1946C48.6261 12.1946 48.893 12.0847 49.0867 11.8858C49.2856 11.6921 49.3955 11.4252 49.3955 11.1477V9.03308C49.3955 8.75566 49.2856 8.4887 49.0867 8.29503C48.893 8.09612 48.6261 7.9862 48.3486 7.9862C47.7729 7.9862 47.3018 8.45729 47.3018 9.03308V10.9384C47.2808 11.2316 47.3803 11.5194 47.5792 11.734C47.7781 11.9487 48.0555 12.069 48.3486 12.069V12.1946ZM48.3486 5.18051C48.6261 5.18051 48.893 5.07059 49.0867 4.87168C49.2856 4.67801 49.3955 4.41106 49.3955 4.13364V2.03989C49.3955 1.76247 49.2856 1.49551 49.0867 1.30184C48.893 1.10293 48.6261 0.993011 48.3486 0.993011C47.7729 1.00348 47.3122 1.4641 47.3018 2.03989V4.13364C47.3646 4.66231 47.8147 5.06013 48.3486 5.05489V5.18051ZM59.5711 21.1346H62.0208C62.5966 21.1346 63.0677 20.6635 63.0677 20.0877C63.0677 19.5119 62.5966 19.0408 62.0208 19.0408H59.5711C58.9954 19.0408 58.5243 19.5119 58.5243 20.0877C58.5243 20.6635 58.9954 21.1346 59.5711 21.1346ZM68.2393 21.1346H70.71C71.2858 21.1346 71.7569 20.6635 71.7569 20.0877C71.7569 19.5119 71.2858 19.0408 70.71 19.0408H68.2393C67.6635 19.0408 67.1925 19.5119 67.1925 20.0877C67.1925 20.6635 67.6635 21.1346 68.2393 21.1346ZM65.1406 26.7039C65.418 26.7039 65.685 26.5939 65.8786 26.395C66.0775 26.2014 66.1875 25.9344 66.1875 25.657V23.0607C66.1875 22.4849 65.7164 22.0139 65.1406 22.0139C64.5648 22.0139 64.0937 22.4849 64.0937 23.0607V25.5941C64.1251 26.149 64.5857 26.5782 65.1406 26.5782V26.7039ZM65.1406 18.0148C65.418 18.0148 65.685 17.9048 65.8786 17.7059C66.0775 17.5123 66.1875 17.2453 66.1875 16.9679V14.3925C66.1875 13.8168 65.7164 13.3457 65.1406 13.3457C64.5648 13.3457 64.0937 13.8168 64.0937 14.3925V16.8422C64.0937 17.418 64.5648 17.8891 65.1406 17.8891V18.0148ZM87.8375 22.2023H89.7638C90.3395 22.1918 90.8002 21.7312 90.8106 21.1554C90.8106 20.878 90.7007 20.611 90.5018 20.4173C90.3081 20.2184 90.0412 20.1085 89.7638 20.1085H87.8375C87.2617 20.1085 86.7906 20.5796 86.7906 21.1554C86.8639 21.6736 87.3141 22.0609 87.8375 22.0557V22.2023ZM94.6004 22.2023H96.5266C97.1024 22.1918 97.563 21.7312 97.5735 21.1554C97.5735 20.878 97.4636 20.611 97.2646 20.4173C97.071 20.2184 96.804 20.1085 96.5266 20.1085H94.6004C94.0246 20.1085 93.5535 20.5796 93.5535 21.1554C93.6268 21.6736 94.0769 22.0609 94.6004 22.0557V22.2023ZM92.1716 26.5364C92.449 26.5364 92.716 26.4264 92.9096 26.2275C93.1086 26.0339 93.2185 25.7669 93.2185 25.4895V23.5004C93.2185 23.223 93.1086 22.956 92.9096 22.7623C92.716 22.5634 92.449 22.4535 92.1716 22.4535C91.5958 22.464 91.1352 22.9246 91.1247 23.5004V25.4266C91.1666 25.971 91.6272 26.3898 92.1716 26.3898V26.5364ZM92.1716 19.7735C92.449 19.7735 92.716 19.6636 92.9096 19.4647C93.1086 19.271 93.2185 19.0041 93.2185 18.7266V16.8004C93.2185 16.523 93.1086 16.256 92.9096 16.0623C92.716 15.8634 92.449 15.7535 92.1716 15.7535C91.5958 15.764 91.1352 16.2246 91.1247 16.8004V18.7266C91.198 19.2448 91.6482 19.6322 92.1716 19.627V19.7735ZM4.77815 14.4973H6.7044C6.98182 14.4973 7.24877 14.3873 7.44244 14.1884C7.64135 13.9948 7.75127 13.7278 7.75127 13.4504C7.7408 12.8746 7.28018 12.414 6.7044 12.4035H4.77815C4.20236 12.4035 3.73127 12.8746 3.73127 13.4504C3.73127 13.7278 3.84119 13.9948 4.0401 14.1884C4.23377 14.3873 4.50073 14.4973 4.77815 14.4973ZM11.541 14.4973H13.4672C13.7447 14.4973 14.0116 14.3873 14.2053 14.1884C14.4042 13.9948 14.5141 13.7278 14.5141 13.4504C14.5036 12.8746 14.043 12.414 13.4672 12.4035H11.541C10.9652 12.4035 10.4941 12.8746 10.4941 13.4504C10.4941 13.7278 10.604 13.9948 10.8029 14.1884C10.9966 14.3873 11.2636 14.4973 11.541 14.4973ZM9.11224 18.8523C9.38966 18.8523 9.65662 18.7423 9.85029 18.5434C10.0492 18.3498 10.1591 18.0828 10.1591 17.8054V15.8791C10.1591 15.6017 10.0492 15.3348 9.85029 15.1411C9.65662 14.9422 9.38966 14.8323 9.11224 14.8323C8.53646 14.8323 8.06537 15.3034 8.06537 15.8791V17.8054C8.07584 18.3812 8.53646 18.8418 9.11224 18.8523ZM9.11224 12.0894C9.38966 12.0894 9.65662 11.9795 9.85029 11.7806C10.0492 11.5869 10.1591 11.32 10.1591 11.0425V9.11629C10.1591 8.83887 10.0492 8.57192 9.85029 8.37825C9.65662 8.17934 9.38966 8.06942 9.11224 8.06942C8.53646 8.06942 8.06537 8.54051 8.06537 9.11629V11.0425C8.07584 11.6183 8.53646 12.079 9.11224 12.0894Z" fill="black"/>
</svg>
