<svg viewBox="0 0 180 44" fill="none" xmlns="http://www.w3.org/2000/svg">
<g clip-path="url(#clip0_804_50)">
<g clip-path="url(#clip1_804_50)">
<path d="M51.2401 34.9631C51.2144 34.9648 51.1886 34.9611 51.1644 34.9523C51.1402 34.9434 51.1181 34.9295 51.0996 34.9116C51.0811 34.8936 51.0665 34.872 51.0569 34.848C51.0473 34.8241 51.0428 34.7984 51.0437 34.7726V8.05565C51.0428 8.02986 51.0473 8.00416 51.0569 7.98023C51.0665 7.95629 51.0811 7.93464 51.0996 7.91669C51.1181 7.89873 51.1402 7.88487 51.1644 7.87599C51.1886 7.86712 51.2144 7.86343 51.2401 7.86516H62.5388C66.9945 7.86516 70.1122 11.2877 70.1122 15.7918C70.1122 20.2958 66.9945 23.7245 62.5388 23.7245H53.9466C53.9212 23.7227 53.8956 23.7264 53.8717 23.7353C53.8478 23.7442 53.8261 23.7582 53.808 23.7763C53.79 23.7943 53.776 23.8161 53.7671 23.84C53.7582 23.8639 53.7545 23.8895 53.7564 23.915V34.7726C53.7572 34.7979 53.7529 34.823 53.7436 34.8465C53.7344 34.87 53.7204 34.8913 53.7025 34.9092C53.6847 34.9271 53.6634 34.9411 53.6399 34.9503C53.6164 34.9596 53.5913 34.964 53.5661 34.9631H51.2401ZM53.9466 10.1694C53.9209 10.1685 53.8952 10.173 53.8713 10.1826C53.8474 10.1923 53.8258 10.2068 53.8078 10.2254C53.7899 10.2439 53.776 10.266 53.7672 10.2902C53.7583 10.3145 53.7546 10.3403 53.7564 10.366V21.1929C53.7546 21.2187 53.7583 21.2445 53.7672 21.2687C53.776 21.293 53.7899 21.3151 53.8078 21.3336C53.8258 21.3521 53.8474 21.3667 53.8713 21.3763C53.8952 21.386 53.9209 21.3905 53.9466 21.3896H62.1767C65.4049 21.3896 67.4425 18.5384 67.4425 15.7672C67.4425 12.996 65.4049 10.1448 62.1767 10.1448L53.9466 10.1694Z" fill="#000000"/>
<path d="M79.9993 15.085C85.2651 15.085 88.5915 17.3954 88.5915 22.0161V30.0595C88.5915 32.0626 89.0886 32.6402 90.7027 32.6402H91.1262C91.1519 32.6385 91.1777 32.6422 91.2019 32.6511C91.2261 32.6599 91.2482 32.6738 91.2667 32.6918C91.2852 32.7097 91.2998 32.7314 91.3094 32.7553C91.319 32.7792 91.3235 32.8049 91.3226 32.8307V34.754C91.3235 34.7798 91.319 34.8055 91.3094 34.8294C91.2998 34.8534 91.2852 34.875 91.2667 34.893C91.2482 34.9109 91.2261 34.9248 91.2019 34.9337C91.1777 34.9425 91.1519 34.9462 91.1262 34.9445H90.7027C88.0514 34.9445 86.9774 34.2133 86.3207 32.6402C86.3149 32.6027 86.2979 32.5678 86.2721 32.5401C86.2463 32.5123 86.2127 32.4928 86.1758 32.4842C86.1389 32.4756 86.1002 32.4783 86.0648 32.4919C86.0294 32.5054 85.9988 32.5293 85.977 32.5604C85.4001 33.138 83.5528 35.2148 78.7842 35.3316C73.7086 35.3316 70.9407 32.9045 70.9407 29.402C70.9407 25.8996 73.7086 23.6322 79.1708 23.6322H83.9763C85.2037 23.6322 85.8973 23.6322 85.8973 22.0161C85.8973 20.013 85.437 17.3954 80.0178 17.3954C76.1697 17.3954 74.4022 19.0114 74.4022 22.053C74.404 22.0785 74.4003 22.1041 74.3914 22.128C74.3825 22.1519 74.3685 22.1737 74.3505 22.1918C74.3324 22.2098 74.3107 22.2238 74.2868 22.2327C74.2629 22.2416 74.2374 22.2453 74.2119 22.2435H71.9043C71.8788 22.2453 71.8533 22.2416 71.8294 22.2327C71.8055 22.2238 71.7837 22.2098 71.7657 22.1918C71.7477 22.1737 71.7337 22.1519 71.7248 22.128C71.7159 22.1041 71.7122 22.0785 71.714 22.053C71.6956 17.3585 75.3841 15.085 79.9993 15.085ZM85.8604 26.1085C85.8623 26.083 85.8586 26.0574 85.8497 26.0335C85.8408 26.0095 85.8268 25.9878 85.8088 25.9697C85.7907 25.9517 85.769 25.9377 85.7451 25.9288C85.7212 25.9198 85.6956 25.9162 85.6702 25.918H79.2874C74.3776 25.918 73.5982 27.6877 73.5982 29.3774C73.5982 31.0672 75.0588 32.9966 78.7473 32.9966C83.786 32.9966 85.7868 29.7277 85.8604 27.0302V26.1085Z" fill="#000000"/>
<path d="M111.41 33.6172V34.1948C111.41 39.725 107.948 43.0062 102.296 43.0062C97.4537 43.0062 94.1089 40.4316 93.7038 37.4269C93.7029 37.4011 93.7074 37.3754 93.717 37.3514C93.7266 37.3275 93.7412 37.3059 93.7597 37.2879C93.7782 37.2699 93.8003 37.2561 93.8245 37.2472C93.8487 37.2383 93.8745 37.2346 93.9002 37.2364H96.128C96.1873 37.2357 96.2453 37.2538 96.2938 37.2879C96.3422 37.3221 96.3788 37.3707 96.3981 37.4269C96.7847 38.9262 98.7793 40.702 102.278 40.702C107.353 40.702 108.624 37.5436 108.703 34.1948V32.6893C108.695 32.6525 108.676 32.6188 108.65 32.5923C108.623 32.5658 108.589 32.5475 108.552 32.5398C108.515 32.532 108.477 32.535 108.442 32.5485C108.406 32.5619 108.376 32.5852 108.353 32.6156C107.549 33.5803 105.622 35.3868 101.854 35.3868C96.4349 35.3868 92.7034 31.2699 92.7034 25.2604C92.7034 19.251 96.2446 15.1402 101.854 15.1402C103.071 15.1173 104.28 15.3524 105.4 15.83C106.52 16.3076 107.526 17.0169 108.353 17.9114C108.375 17.9448 108.405 17.9707 108.442 17.9857C108.478 18.0008 108.518 18.0042 108.557 17.9954C108.595 17.9866 108.63 17.9662 108.656 17.9368C108.682 17.9075 108.699 17.8707 108.703 17.8316L109.084 15.7178C109.121 15.601 109.164 15.5212 109.28 15.5212H111.201C111.227 15.5203 111.253 15.5248 111.277 15.5344C111.3 15.544 111.322 15.5586 111.34 15.5771C111.358 15.5957 111.372 15.6178 111.381 15.642C111.389 15.6662 111.393 15.692 111.391 15.7178L111.41 33.6172ZM102.259 33.0764C106.555 33.0764 108.722 29.8812 108.722 25.2604C108.722 20.6397 106.568 17.4506 102.259 17.4506C97.9508 17.4506 95.4161 20.6458 95.4161 25.2604C95.4161 29.8751 97.9508 33.0764 102.259 33.0764Z" fill="#000000"/>
<path d="M124.482 35.3252C118.449 35.3252 114.951 31.2083 114.951 25.1989C114.951 19.1894 118.449 15.0786 124.482 15.0786C130.515 15.0786 134.02 19.1955 134.02 25.1989C134.02 31.2022 130.478 35.3252 124.482 35.3252ZM124.482 17.389C120.217 17.389 117.639 20.5842 117.639 25.1989C117.639 29.8135 120.217 33.0149 124.482 33.0149C128.748 33.0149 131.325 29.8196 131.325 25.1989C131.325 20.5781 128.748 17.3952 124.482 17.3952V17.389Z" fill="#000000"/>
<path d="M155.586 34.7727C155.588 34.7982 155.584 34.8238 155.575 34.8477C155.566 34.8717 155.552 34.8934 155.534 34.9115C155.516 34.9295 155.494 34.9435 155.471 34.9524C155.447 34.9614 155.421 34.965 155.396 34.9632H153.475C153.358 34.9632 153.321 34.8895 153.278 34.7727L152.898 32.6528C152.89 32.6142 152.87 32.5791 152.841 32.5525C152.812 32.526 152.776 32.5094 152.736 32.5053C152.697 32.5012 152.658 32.5097 152.624 32.5296C152.59 32.5495 152.563 32.5798 152.548 32.616C152.284 33.0031 150.4 35.3503 146.055 35.3503C140.052 35.3503 136.904 31.2334 136.904 25.2239C136.904 19.2145 140.249 15.1037 146.055 15.1037C150.32 15.1037 152.192 17.4141 152.548 17.9118C152.665 18.1023 152.898 18.0285 152.898 17.8749V8.04348C152.896 8.01799 152.9 7.99241 152.909 7.96847C152.917 7.94454 152.931 7.9228 152.949 7.90473C152.968 7.88667 152.989 7.87269 153.013 7.86377C153.037 7.85484 153.063 7.85117 153.088 7.853H155.396C155.421 7.85117 155.447 7.85484 155.471 7.86377C155.494 7.87269 155.516 7.88667 155.534 7.90473C155.552 7.9228 155.566 7.94454 155.575 7.96847C155.584 7.99241 155.588 8.01799 155.586 8.04348V34.7727ZM146.435 33.0399C150.731 33.0399 152.898 29.8447 152.898 25.2239C152.898 20.6032 150.744 17.4141 146.435 17.4141C142.127 17.4141 139.592 20.6093 139.592 25.2239C139.592 29.8386 142.133 33.0399 146.435 33.0399Z" fill="#000000"/>
<path d="M168.714 15.0112C173.979 15.0112 177.306 17.3216 177.306 21.9424V29.9857C177.306 31.9889 177.803 32.5665 179.417 32.5665H179.84C179.866 32.5647 179.891 32.5683 179.915 32.5773C179.939 32.5862 179.961 32.6002 179.979 32.6182C179.997 32.6363 180.011 32.658 180.02 32.682C180.029 32.7059 180.033 32.7315 180.031 32.757V34.711C180.032 34.7367 180.029 34.7626 180.02 34.7868C180.011 34.811 179.997 34.8331 179.979 34.8517C179.961 34.8702 179.94 34.8848 179.916 34.8944C179.892 34.904 179.866 34.9085 179.84 34.9076H179.417C176.766 34.9076 175.692 34.1764 175.035 32.5972C175.029 32.5597 175.012 32.5248 174.986 32.497C174.96 32.4692 174.927 32.4498 174.89 32.4412C174.853 32.4326 174.814 32.4353 174.779 32.4489C174.744 32.4624 174.713 32.4863 174.691 32.5173C174.114 33.0949 172.267 35.1718 167.498 35.2886C162.423 35.2886 159.655 32.8676 159.655 29.359C159.655 25.8504 162.423 23.5892 167.885 23.5892H172.691C173.918 23.5892 174.611 23.5892 174.611 21.9731C174.611 19.97 174.151 17.3523 168.732 17.3523C164.884 17.3523 163.116 18.9684 163.116 22.01C163.118 22.0355 163.115 22.0611 163.106 22.085C163.097 22.1089 163.083 22.1307 163.065 22.1487C163.047 22.1668 163.025 22.1808 163.001 22.1897C162.977 22.1986 162.952 22.2023 162.926 22.2005H160.619C160.593 22.2023 160.568 22.1986 160.544 22.1897C160.52 22.1808 160.498 22.1668 160.48 22.1487C160.462 22.1307 160.448 22.1089 160.439 22.085C160.43 22.0611 160.426 22.0355 160.428 22.01C160.398 17.2848 164.086 15.0112 168.714 15.0112ZM174.593 26.0716C174.595 26.0461 174.591 26.0205 174.582 25.9966C174.573 25.9727 174.559 25.9509 174.541 25.9329C174.523 25.9148 174.502 25.9008 174.478 25.8919C174.454 25.883 174.428 25.8793 174.403 25.8811H168.02C163.11 25.8811 162.331 27.6508 162.331 29.3406C162.331 31.0303 163.791 32.9598 167.48 32.9598C172.519 32.9598 174.519 29.6908 174.593 26.9933V26.0716Z" fill="#000000"/>
<path d="M12.2991 0.0170898L24.5804 12.3132C21.3232 15.5744 16.9055 17.4065 12.2991 17.4065C7.69267 17.4065 3.27493 15.5744 0.0177088 12.3132L12.2991 0.0170898Z" fill="#000000"/>
<path d="M42.9788 12.3096L30.6974 24.6057C27.4402 21.3446 25.6103 16.9215 25.6103 12.3096C25.6103 7.69763 27.4402 3.27457 30.6974 0.0134309L42.9788 12.3096Z" fill="#000000"/>
<path d="M30.6951 43.0259L18.4137 30.7297C21.6709 27.4686 26.0887 25.6365 30.6951 25.6365C35.3015 25.6365 39.7192 27.4686 42.9764 30.7297L30.6951 43.0259Z" fill="#000000"/>
<path d="M0.0153809 30.7217L12.2968 18.4255C15.554 21.6867 17.3839 26.1097 17.3839 30.7217C17.3839 35.3336 15.554 39.7567 12.2968 43.0178L0.0153809 30.7217Z" fill="#000000"/>
</g>
</g>
<defs>
<clipPath id="clip0_804_50">
<rect width="180" height="43.0372" fill="#000000"/>
</clipPath>
<clipPath id="clip1_804_50">
<rect width="180" height="43.0372" fill="#000000"/>
</clipPath>
</defs>
</svg>
