<svg width="276" height="32" viewBox="0 0 276 32" fill="none" xmlns="http://www.w3.org/2000/svg">
<path fill-rule="evenodd" clip-rule="evenodd" d="M0.561189 7.79726L8.3584 4.99488e-06L16.1554 7.79701C11.8521 12.1003 4.86447 12.1006 0.561189 7.79726Z" fill="black"/>
<path fill-rule="evenodd" clip-rule="evenodd" d="M19.9439 0.561269L27.7412 8.35852L19.9442 16.1555C15.6409 11.8522 15.6407 4.86458 19.9439 0.561269Z" fill="black"/>
<path fill-rule="evenodd" clip-rule="evenodd" d="M27.1799 19.9442L19.3827 27.7415L11.5857 19.9445C15.889 15.6412 22.8766 15.6409 27.1799 19.9442Z" fill="black"/>
<path fill-rule="evenodd" clip-rule="evenodd" d="M7.79727 27.1805L5.72905e-05 19.3832L7.79702 11.5862C12.1003 15.8895 12.1006 22.8772 7.79727 27.1805Z" fill="black"/>
<path d="M53.701 13.8583C53.701 16.2158 53.2411 18.2457 52.3214 19.9478C51.4122 21.6499 50.1382 22.9608 48.4996 23.8806C46.8715 24.8004 44.979 25.2603 42.8223 25.2603H34.4651V2.91614H41.855C45.6398 2.91614 48.5577 3.86763 50.6087 5.77061C52.6703 7.66301 53.701 10.3589 53.701 13.8583ZM50.6563 13.8583C50.6563 11.0884 49.8951 8.97924 48.3727 7.53086C46.8609 6.07191 44.6672 5.34244 41.7916 5.34244H37.494V22.834H42.4735C44.1333 22.834 45.5711 22.4692 46.7869 21.7398C48.0132 21.0103 48.9647 19.9742 49.6413 18.6316C50.318 17.2889 50.6563 15.6978 50.6563 13.8583Z" fill="black"/>
<path d="M57.6992 17.2836C57.6992 19.25 58.1062 20.7671 58.9203 21.8349C59.7343 22.9027 60.9237 23.4366 62.4884 23.4366C63.7253 23.4366 64.7138 23.1881 65.4538 22.6913C66.2045 22.1944 66.7119 21.5653 66.9762 20.8041L69.4818 21.5178C68.4563 24.2242 66.1252 25.5774 62.4884 25.5774C59.951 25.5774 58.0164 24.8215 56.6843 23.3097C55.3628 21.7979 54.702 19.5513 54.702 16.57C54.702 13.7367 55.3628 11.5641 56.6843 10.0523C58.0164 8.5405 59.914 7.78459 62.3773 7.78459C64.9041 7.78459 66.7965 8.54578 68.0546 10.0682C69.3126 11.5906 69.9417 13.8688 69.9417 16.903V17.2836H57.6992ZM66.9921 15.0952C66.8335 13.2874 66.3736 11.9711 65.6124 11.1465C64.8512 10.3113 63.757 9.89373 62.3298 9.89373C60.9448 9.89373 59.8453 10.3589 59.0313 11.2892C58.2278 12.209 57.7943 13.4777 57.7309 15.0952H66.9921Z" fill="black"/>
<path d="M85.5797 8.10176L79.173 25.2603H75.7953L69.563 8.10176H72.6078L76.382 19.2659C76.456 19.4773 76.5829 19.9002 76.7626 20.5346C76.9423 21.1583 77.1802 21.9882 77.4762 23.0243C77.6137 22.612 77.7458 22.1838 77.8727 21.7398C78.0101 21.2852 78.1423 20.8464 78.2691 20.4235C78.4066 20.0007 78.5334 19.6253 78.6497 19.2976L82.5508 8.10176H85.5797Z" fill="black"/>
<path d="M88.1189 17.2836C88.1189 19.25 88.526 20.7671 89.34 21.8349C90.1541 22.9027 91.3434 23.4366 92.9081 23.4366C94.145 23.4366 95.1335 23.1881 95.8736 22.6913C96.6242 22.1944 97.1317 21.5653 97.396 20.8041L99.9016 21.5178C98.8761 24.2242 96.5449 25.5774 92.9081 25.5774C90.3708 25.5774 88.4361 24.8215 87.104 23.3097C85.7825 21.7979 85.1218 19.5513 85.1218 16.57C85.1218 13.7367 85.7825 11.5641 87.104 10.0523C88.4361 8.5405 90.3338 7.78459 92.7971 7.78459C95.3238 7.78459 97.2162 8.54578 98.4743 10.0682C99.7324 11.5906 100.361 13.8688 100.361 16.903V17.2836H88.1189ZM97.4118 15.0952C97.2532 13.2874 96.7934 11.9711 96.0322 11.1465C95.271 10.3113 94.1768 9.89373 92.7495 9.89373C91.3646 9.89373 90.2651 10.3589 89.451 11.2892C88.6475 12.209 88.2141 13.4777 88.1507 15.0952H97.4118Z" fill="black"/>
<path d="M104.915 1.72678V25.2603H102.06V1.72678H104.915Z" fill="black"/>
<path d="M121.853 16.6652C121.853 19.6676 121.192 21.9036 119.871 23.3732C118.549 24.8427 116.63 25.5774 114.114 25.5774C111.609 25.5774 109.716 24.8163 108.437 23.2939C107.158 21.7609 106.518 19.5513 106.518 16.6652C106.518 13.705 107.158 11.4848 108.437 10.0047C109.727 8.52464 111.651 7.78459 114.209 7.78459C116.831 7.78459 118.761 8.50878 119.998 9.95716C121.235 11.395 121.853 13.631 121.853 16.6652ZM118.856 16.6652C118.856 14.297 118.502 12.579 117.793 11.5113C117.096 10.4329 115.917 9.89373 114.257 9.89373C112.587 9.89373 111.376 10.4435 110.625 11.543C109.885 12.6319 109.515 14.3393 109.515 16.6652C109.515 18.9276 109.88 20.6297 110.61 21.7715C111.35 22.9027 112.507 23.4683 114.083 23.4683C115.795 23.4683 117.016 22.9186 117.746 21.8191C118.486 20.7196 118.856 19.0016 118.856 16.6652Z" fill="black"/>
<path d="M137.983 16.6017C137.983 19.5936 137.454 21.8402 136.397 23.3414C135.35 24.8321 133.775 25.5774 131.671 25.5774C129.028 25.5774 127.252 24.5837 126.343 22.5961H126.264C126.306 22.6701 126.327 23.5687 126.327 25.292V32H123.472V11.6064C123.472 10.7289 123.462 9.99945 123.441 9.41798C123.43 8.82594 123.409 8.3872 123.377 8.10176H126.137C126.147 8.14404 126.163 8.3502 126.184 8.72022C126.216 9.09025 126.242 9.49199 126.264 9.92544C126.285 10.3483 126.295 10.6602 126.295 10.8611H126.359C126.866 9.80386 127.537 9.0321 128.373 8.54578C129.208 8.04889 130.307 7.80045 131.671 7.80045C133.786 7.80045 135.366 8.50878 136.413 9.92544C137.459 11.3421 137.983 13.5675 137.983 16.6017ZM134.986 16.6652C134.986 14.2759 134.663 12.5685 134.018 11.543C133.373 10.5175 132.348 10.0047 130.942 10.0047C129.377 10.0047 128.214 10.5492 127.453 11.6381C126.702 12.7165 126.327 14.4662 126.327 16.8872C126.327 19.139 126.686 20.7989 127.405 21.8666C128.124 22.9344 129.292 23.4683 130.91 23.4683C132.327 23.4683 133.357 22.9503 134.002 21.9142C134.658 20.8676 134.986 19.1179 134.986 16.6652Z" fill="black"/>
<path d="M141.791 17.2836C141.791 19.25 142.198 20.7671 143.012 21.8349C143.826 22.9027 145.015 23.4366 146.58 23.4366C147.817 23.4366 148.805 23.1881 149.545 22.6913C150.296 22.1944 150.803 21.5653 151.068 20.8041L153.573 21.5178C152.548 24.2242 150.217 25.5774 146.58 25.5774C144.042 25.5774 142.108 24.8215 140.776 23.3097C139.454 21.7979 138.793 19.5513 138.793 16.57C138.793 13.7367 139.454 11.5641 140.776 10.0523C142.108 8.5405 144.005 7.78459 146.469 7.78459C148.995 7.78459 150.888 8.54578 152.146 10.0682C153.404 11.5906 154.033 13.8688 154.033 16.903V17.2836H141.791ZM151.083 15.0952C150.925 13.2874 150.465 11.9711 149.704 11.1465C148.943 10.3113 147.848 9.89373 146.421 9.89373C145.036 9.89373 143.937 10.3589 143.123 11.2892C142.319 12.209 141.886 13.4777 141.822 15.0952H151.083Z" fill="black"/>
<path d="M158.65 16.3163V25.2603H155.795V12.098C155.795 11.4954 155.785 10.8611 155.764 10.195C155.753 9.52899 155.732 8.83123 155.7 8.10176H158.396C158.417 8.58807 158.433 9.02681 158.444 9.41798C158.465 9.80915 158.481 10.1527 158.491 10.4488C158.502 10.7342 158.507 10.9774 158.507 11.1782C158.518 11.3685 158.523 11.5113 158.523 11.6064H158.586C158.903 10.5703 159.252 9.76686 159.633 9.19597C160.003 8.66736 160.426 8.30263 160.902 8.10176C161.377 7.89031 161.964 7.78459 162.662 7.78459C163.053 7.78459 163.439 7.83745 163.819 7.94317V10.5598C163.46 10.454 162.953 10.4012 162.297 10.4012C161.113 10.4012 160.209 10.9139 159.585 11.9394C158.962 12.9544 158.65 14.4133 158.65 16.3163Z" fill="black"/>
<path d="M182.187 23.0877C185.316 23.0877 187.669 21.5389 189.244 18.4413L191.718 19.6782C190.798 21.6023 189.503 23.0666 187.832 24.0709C186.173 25.0753 184.243 25.5774 182.044 25.5774C179.782 25.5774 177.837 25.107 176.208 24.1661C174.58 23.2252 173.328 21.8878 172.45 20.154C171.583 18.4096 171.15 16.3533 171.15 13.9851C171.15 11.6064 171.583 9.56599 172.45 7.86388C173.317 6.16177 174.564 4.85612 176.193 3.94692C177.821 3.03772 179.766 2.58312 182.028 2.58312C184.407 2.58312 186.395 3.04829 187.991 3.97863C189.587 4.90898 190.761 6.28864 191.512 8.11761L188.641 9.0691C188.123 7.76873 187.288 6.77496 186.136 6.08777C184.994 5.40058 183.635 5.05699 182.06 5.05699C179.586 5.05699 177.662 5.85518 176.288 7.45157C174.913 9.03739 174.226 11.2152 174.226 13.9851C174.226 15.8035 174.549 17.3999 175.194 18.7743C175.849 20.1381 176.769 21.2006 177.953 21.9618C179.148 22.7124 180.559 23.0877 182.187 23.0877Z" fill="black"/>
<path d="M207.721 16.6652C207.721 19.6676 207.06 21.9036 205.738 23.3732C204.417 24.8427 202.498 25.5774 199.982 25.5774C197.476 25.5774 195.584 24.8163 194.305 23.2939C193.025 21.7609 192.386 19.5513 192.386 16.6652C192.386 13.705 193.025 11.4848 194.305 10.0047C195.594 8.52464 197.518 7.78459 200.077 7.78459C202.699 7.78459 204.628 8.50878 205.865 9.95716C207.102 11.395 207.721 13.631 207.721 16.6652ZM204.723 16.6652C204.723 14.297 204.369 12.579 203.661 11.5113C202.963 10.4329 201.784 9.89373 200.124 9.89373C198.454 9.89373 197.244 10.4435 196.493 11.543C195.753 12.6319 195.383 14.3393 195.383 16.6652C195.383 18.9276 195.748 20.6297 196.477 21.7715C197.217 22.9027 198.375 23.4683 199.95 23.4683C201.663 23.4683 202.884 22.9186 203.613 21.8191C204.353 20.7196 204.723 19.0016 204.723 16.6652Z" fill="black"/>
<path d="M212.258 15.3172V25.2603H209.403V11.765C209.403 10.7606 209.393 9.95716 209.372 9.35455C209.361 8.74137 209.34 8.32377 209.308 8.10176H212.004C212.025 8.30263 212.041 8.55636 212.052 8.86295C212.073 9.16954 212.089 9.50785 212.099 9.87787C212.11 10.2479 212.12 10.6338 212.131 11.0355H212.179C212.834 9.85144 213.59 9.01624 214.446 8.52993C215.313 8.03304 216.386 7.78459 217.665 7.78459C219.547 7.78459 220.922 8.26562 221.789 9.22768C222.666 10.1897 223.105 11.7227 223.105 13.8266V25.2603H220.235V14.3816C220.235 12.7429 219.97 11.6011 219.442 10.9562C218.913 10.3113 217.999 9.98888 216.698 9.98888C215.324 9.98888 214.24 10.4593 213.447 11.4003C212.654 12.3412 212.258 13.6468 212.258 15.3172Z" fill="black"/>
<path d="M238.346 20.5187C238.346 22.1362 237.733 23.3837 236.507 24.2612C235.291 25.1387 233.584 25.5774 231.385 25.5774C229.249 25.5774 227.6 25.2286 226.437 24.5308C225.285 23.8225 224.534 22.723 224.185 21.2323L226.707 20.7407C226.95 21.6605 227.452 22.3371 228.213 22.7706C228.974 23.1934 230.031 23.4049 231.385 23.4049C232.833 23.4049 233.89 23.1829 234.556 22.7388C235.233 22.2948 235.571 21.6288 235.571 20.7407C235.571 20.0641 235.339 19.5143 234.874 19.0915C234.408 18.6686 233.658 18.3197 232.622 18.0448C231.395 17.7171 230.417 17.4475 229.688 17.2361C228.969 17.0246 228.414 16.8449 228.023 16.6969C227.632 16.5383 227.32 16.3903 227.087 16.2528C226.389 15.8511 225.845 15.3595 225.454 14.778C225.063 14.1966 224.867 13.483 224.867 12.6372C224.867 11.0725 225.422 9.88315 226.532 9.0691C227.653 8.24448 229.281 7.83217 231.416 7.83217C233.309 7.83217 234.81 8.16519 235.92 8.83123C237.041 9.49727 237.749 10.5651 238.045 12.0346L235.476 12.3517C235.318 11.5906 234.889 11.0091 234.192 10.6073C233.504 10.195 232.579 9.98888 231.416 9.98888C230.127 9.98888 229.175 10.1845 228.562 10.5756C227.949 10.9668 227.642 11.5588 227.642 12.3517C227.642 12.9332 227.817 13.4142 228.165 13.7948C228.514 14.1649 229.18 14.4714 230.164 14.7146C231.485 15.0318 232.743 15.3806 233.938 15.7612C235.133 16.1313 235.989 16.5013 236.507 16.8713C237.109 17.3048 237.564 17.8175 237.871 18.4096C238.188 18.991 238.346 19.6941 238.346 20.5187Z" fill="black"/>
<path d="M254.27 16.6652C254.27 19.6676 253.609 21.9036 252.288 23.3732C250.966 24.8427 249.047 25.5774 246.531 25.5774C244.026 25.5774 242.133 24.8163 240.854 23.2939C239.575 21.7609 238.935 19.5513 238.935 16.6652C238.935 13.705 239.575 11.4848 240.854 10.0047C242.144 8.52464 244.068 7.78459 246.626 7.78459C249.248 7.78459 251.178 8.50878 252.415 9.95716C253.651 11.395 254.27 13.631 254.27 16.6652ZM251.273 16.6652C251.273 14.297 250.919 12.579 250.21 11.5113C249.512 10.4329 248.334 9.89373 246.674 9.89373C245.003 9.89373 243.793 10.4435 243.042 11.543C242.302 12.6319 241.932 14.3393 241.932 16.6652C241.932 18.9276 242.297 20.6297 243.026 21.7715C243.767 22.9027 244.924 23.4683 246.499 23.4683C248.212 23.4683 249.433 22.9186 250.163 21.8191C250.903 20.7196 251.273 19.0016 251.273 16.6652Z" fill="black"/>
<path d="M258.744 1.72678V25.2603H255.889V1.72678H258.744Z" fill="black"/>
<path d="M263.36 17.2836C263.36 19.25 263.767 20.7671 264.582 21.8349C265.396 22.9027 266.585 23.4366 268.15 23.4366C269.387 23.4366 270.375 23.1881 271.115 22.6913C271.866 22.1944 272.373 21.5653 272.637 20.8041L275.143 21.5178C274.118 24.2242 271.786 25.5774 268.15 25.5774C265.612 25.5774 263.678 24.8215 262.346 23.3097C261.024 21.7979 260.363 19.5513 260.363 16.57C260.363 13.7367 261.024 11.5641 262.346 10.0523C263.678 8.5405 265.575 7.78459 268.039 7.78459C270.565 7.78459 272.458 8.54578 273.716 10.0682C274.974 11.5906 275.603 13.8688 275.603 16.903V17.2836H263.36ZM272.653 15.0952C272.495 13.2874 272.035 11.9711 271.274 11.1465C270.512 10.3113 269.418 9.89373 267.991 9.89373C266.606 9.89373 265.507 10.3589 264.693 11.2892C263.889 12.209 263.456 13.4777 263.392 15.0952H272.653Z" fill="black"/>
</svg>
