<svg width="297" height="256" viewBox="0 0 297 256" fill="none" xmlns="http://www.w3.org/2000/svg">
<ellipse cx="172" cy="174.5" rx="125" ry="81.5" fill="#242625"/>
<g clip-path="url(#clip0_343_164)">
<path d="M103.896 170.452L102.452 183.452C102.452 183.452 102.452 198.619 121.23 204.397C121.23 204.397 180.31 193.925 203.567 184.897C226.824 175.868 229.568 174.063 237.513 164.674C245.458 155.284 247.624 146.617 247.624 146.617L249.069 133.617" fill="#323232"/>
<path d="M103.896 170.452L102.452 183.452C102.452 183.452 102.452 198.619 121.23 204.397C121.23 204.397 180.31 193.925 203.567 184.897C226.824 175.868 229.568 174.063 237.513 164.674C245.458 155.284 247.624 146.617 247.624 146.617L249.069 133.617" stroke="#F2F2F2" stroke-linecap="round" stroke-linejoin="round"/>
<path d="M103.896 170.452C103.896 170.452 103.896 185.619 122.675 191.397C122.675 191.397 174.431 182.102 197.789 173.341C209.345 169.007 231.013 161.062 238.957 151.673C246.902 142.284 249.069 133.617 249.069 133.617C249.069 133.617 212.956 138.672 193.455 143.728C173.955 148.784 153.009 154.562 139.286 158.896C125.564 163.229 108.23 169.007 103.896 170.452Z" fill="#323232" stroke="#F2F2F2" stroke-linecap="round" stroke-linejoin="round"/>
<path d="M122.675 191.397L121.23 204.398" stroke="#F2F2F2" stroke-linecap="round" stroke-linejoin="round"/>
<path d="M124.993 159.733L122.639 171.001C122.675 171.181 133.508 182.737 133.508 182.737L207.901 163.236L199.956 154.569" fill="#323232"/>
<path d="M124.993 159.733L122.639 171.001C122.675 171.181 133.508 182.737 133.508 182.737L207.901 163.236L199.956 154.569" stroke="#F2F2F2" stroke-linecap="round" stroke-linejoin="round"/>
<path d="M124.993 159.733C125.029 159.892 134.592 170.091 134.592 170.091L199.956 154.562L183.344 143.728L124.993 159.733Z" fill="#323232" stroke="#F2F2F2" stroke-linecap="round" stroke-linejoin="round"/>
<path d="M134.592 170.091L133.508 182.73" stroke="#F2F2F2" stroke-linecap="round" stroke-linejoin="round"/>
<path d="M183.943 80.6394H175.999C175.799 80.6394 175.637 80.8011 175.637 81.0005V82.1995C175.637 82.3989 175.799 82.5606 175.999 82.5606H183.943C184.143 82.5606 184.305 82.3989 184.305 82.1995V81.0005C184.305 80.8011 184.143 80.6394 183.943 80.6394Z" fill="#323232"/>
<path d="M183.943 81.0006V82.1995H175.999V81.0006H183.943ZM183.943 80.2783H175.999C175.601 80.2783 175.276 80.6033 175.276 81.0006V82.1995C175.276 82.5967 175.601 82.9218 175.999 82.9218H183.943C184.341 82.9218 184.666 82.5967 184.666 82.1995V81.0006C184.666 80.6033 184.341 80.2783 183.943 80.2783Z" fill="#F2F2F2"/>
<path d="M100.884 148.466L173.832 143.273V1.95728C164.443 5.14963 100.884 148.466 100.884 148.466Z" fill="#323232" stroke="#F2F2F2" stroke-linecap="round" stroke-linejoin="round"/>
<path d="M174.554 141.995L97.273 147.672V149.189L98.9992 149.687L174.554 144.234V141.995Z" fill="#323232" stroke="#F2F2F2" stroke-linecap="round" stroke-linejoin="round"/>
<path d="M172.387 0.960554C172.387 0.628318 173.355 0.361084 174.554 0.361084C175.753 0.361084 176.721 0.628318 176.721 0.960554V151.861C176.721 152.193 175.753 152.46 174.554 152.46C173.355 152.46 172.387 152.193 172.387 151.861V0.960554Z" fill="#323232" stroke="#F2F2F2" stroke-linecap="round" stroke-linejoin="round"/>
<path d="M221.501 115.091C221.501 115.091 216.568 148.279 212.956 150.951" stroke="#F2F2F2" stroke-linecap="round" stroke-linejoin="round"/>
<path d="M181.777 11.5415L245.696 132.634C245.696 132.634 212.833 121.721 183.221 120.522L181.777 11.5415Z" fill="#323232" stroke="#F2F2F2" stroke-linecap="round" stroke-linejoin="round"/>
<path d="M149.802 113.574L155.804 118.731C152.489 122.508 147.116 123.267 143.801 120.421L149.802 113.574Z" fill="white"/>
<path d="M164.804 117.467L158.802 124.314C155.487 121.468 155.487 116.095 158.802 112.31L164.804 117.467Z" fill="white"/>
<path d="M158.802 133.313L152.8 128.156C156.115 124.379 161.489 123.621 164.804 126.466L158.802 133.313Z" fill="white"/>
<path d="M143.801 129.42L149.802 122.573C153.118 125.419 153.118 130.793 149.802 134.577L143.801 129.42Z" fill="white"/>
<path d="M143.319 176.971C144.621 175.8 144.909 173.997 143.962 172.944C143.015 171.892 141.192 171.987 139.89 173.158C138.588 174.329 138.3 176.132 139.247 177.185C140.194 178.238 142.017 178.142 143.319 176.971Z" fill="#323232" stroke="#F2F2F2" stroke-linecap="round" stroke-linejoin="round"/>
<path d="M152.708 174.809C154.01 173.638 154.297 171.835 153.35 170.782C152.404 169.729 150.58 169.825 149.278 170.996C147.976 172.167 147.689 173.97 148.636 175.023C149.583 176.076 151.406 175.98 152.708 174.809Z" fill="#323232" stroke="#F2F2F2" stroke-linecap="round" stroke-linejoin="round"/>
<path d="M162.096 172.639C163.398 171.468 163.686 169.665 162.739 168.612C161.792 167.56 159.969 167.655 158.667 168.826C157.365 169.997 157.077 171.8 158.024 172.853C158.971 173.906 160.795 173.81 162.096 172.639Z" fill="#323232" stroke="#F2F2F2" stroke-linecap="round" stroke-linejoin="round"/>
<path d="M114.008 206.564C83.673 209.453 81.5424 215.361 75.7282 220.287C67.7401 227.055 60.3948 225.249 46.8381 228.232C40.3451 229.662 23.9499 238.351 13.6145 247.733" stroke="#F2F2F2" stroke-miterlimit="10"/>
<path d="M100.285 184.897C97.8219 186.803 93.9723 189.382 88.801 191.231C86.0131 192.235 80.2134 193.961 61.0809 193.21C47.7409 192.683 46.0725 191.671 40.8867 193.21C33.5342 195.391 32.2703 198.807 25.8422 201.523C20.7359 203.683 12.6033 205.3 0.101105 201.523" stroke="#F2F2F2" stroke-miterlimit="10"/>
</g>
<defs>
<clipPath id="clip0_343_164">
<rect width="249.43" height="248" fill="white"/>
</clipPath>
</defs>
</svg>
