<svg width="38" height="48" viewBox="0 0 38 48" fill="none" xmlns="http://www.w3.org/2000/svg">
<path d="M36.9364 47.3215H1.06322C0.475792 47.3215 0 46.8457 0 46.2582V1.41722C0 0.829796 0.475792 0.354004 1.06322 0.354004H26.2246C26.8121 0.354004 27.2878 0.829796 27.2878 1.41722C27.2878 2.00465 26.8121 2.48044 26.2246 2.48044H2.12678V45.195H35.8736V12.0069C35.8736 11.4195 36.3493 10.9437 36.9368 10.9437C37.5242 10.9437 38 11.4195 38 12.0069V46.2586C38 46.846 37.5242 47.3218 36.9368 47.3218L36.9364 47.3215Z" fill="#83D06B"/>
<path d="M26.2246 13.0779C25.9429 13.0779 25.6718 12.9663 25.4724 12.7669C25.273 12.5676 25.1614 12.2965 25.1614 12.0147V1.4172C25.1614 0.989248 25.4192 0.601188 25.8153 0.436381C26.2113 0.271573 26.6685 0.359298 26.9715 0.662314L37.6833 11.2516C37.989 11.5547 38.0821 12.0119 37.9199 12.4105C37.7551 12.8093 37.367 13.0697 36.9364 13.0697L26.2246 13.0779ZM27.2879 3.96316V10.9515L34.3504 10.9462L27.2879 3.96316Z" fill="#83D06B"/>
<path d="M6.38784 18.7844C6.18051 18.7844 5.97318 18.7233 5.78977 18.601L4.55378 17.7611C4.06736 17.4315 3.94243 16.7696 4.27203 16.2832C4.60163 15.7968 5.26346 15.6692 5.74992 16.0014L6.2523 16.3417L8.43453 14.1222C8.84653 13.7022 9.51905 13.6969 9.93896 14.1089C10.3589 14.5209 10.3643 15.1934 9.95225 15.6133L7.14801 18.4681C6.94068 18.6754 6.66424 18.7844 6.3878 18.7844L6.38784 18.7844Z" fill="#83D06B"/>
<path d="M32.849 17.3575H14.0648C13.4774 17.3575 13.0016 16.8817 13.0016 16.2942C13.0016 15.7068 13.4774 15.231 14.0648 15.231H32.849C33.4364 15.231 33.9122 15.7068 33.9122 16.2942C33.9122 16.8817 33.4364 17.3575 32.849 17.3575Z" fill="#83D06B"/>
<path d="M6.38784 27.1629C6.18051 27.1629 5.97318 27.1018 5.78977 26.9795L4.55378 26.1396C4.06736 25.81 3.94243 25.1481 4.27203 24.6617C4.60163 24.1752 5.26346 24.0477 5.74992 24.3799L6.2523 24.7201L8.43453 22.5007C8.84653 22.0807 9.51905 22.0754 9.93896 22.4874C10.3589 22.8994 10.3643 23.5719 9.95225 23.9918L7.14801 26.8466C6.94068 27.0539 6.66424 27.1629 6.3878 27.1629L6.38784 27.1629Z" fill="#83D06B"/>
<path d="M32.849 25.7351H14.0648C13.4774 25.7351 13.0016 25.2593 13.0016 24.6719C13.0016 24.0844 13.4774 23.6086 14.0648 23.6086H32.849C33.4364 23.6086 33.9122 24.0844 33.9122 24.6719C33.9122 25.2593 33.4364 25.7351 32.849 25.7351Z" fill="#83D06B"/>
<path d="M6.38784 35.5432C6.18051 35.5432 5.97318 35.4821 5.78977 35.3598L4.55378 34.5199C4.06736 34.1903 3.94243 33.5284 4.27203 33.042C4.60163 32.5555 5.26346 32.4306 5.74992 32.7602L6.2523 33.1004L8.43453 30.881C8.84653 30.461 9.51905 30.4557 9.93896 30.8677C10.3589 31.2797 10.3643 31.9522 9.95225 32.3721L7.14801 35.2269C6.94068 35.4342 6.66424 35.5432 6.3878 35.5432L6.38784 35.5432Z" fill="#83D06B"/>
<path d="M32.849 34.1158H14.0648C13.4774 34.1158 13.0016 33.64 13.0016 33.0525C13.0016 32.4651 13.4774 31.9893 14.0648 31.9893H32.849C33.4364 31.9893 33.9122 32.4651 33.9122 33.0525C33.9122 33.64 33.4364 34.1158 32.849 34.1158Z" fill="#83D06B"/>
<path d="M6.38784 43.9219C6.18051 43.9219 5.97318 43.8608 5.78977 43.7385L4.55378 42.8985C4.06736 42.5689 3.94243 41.9071 4.27203 41.4206C4.60163 40.9342 5.26346 40.8093 5.74992 41.1389L6.2523 41.4791L8.43453 39.2597C8.84653 38.8397 9.51905 38.8344 9.93896 39.2464C10.3589 39.6584 10.3643 40.3309 9.95225 40.7508L7.14801 43.6055C6.94068 43.8129 6.66424 43.9218 6.3878 43.9218L6.38784 43.9219Z" fill="#83D06B"/>
<path d="M32.849 42.4942H14.0648C13.4774 42.4942 13.0016 42.0184 13.0016 41.431C13.0016 40.8436 13.4774 40.3678 14.0648 40.3678H32.849C33.4364 40.3678 33.9122 40.8436 33.9122 41.431C33.9122 42.0184 33.4364 42.4942 32.849 42.4942Z" fill="#83D06B"/>
</svg>
