<svg viewBox="0 0 609 483" fill="none" xmlns="http://www.w3.org/2000/svg">
<g filter="url(#filter0_f_2:88)">
<ellipse cx="304.557" cy="241.689" rx="103.435" ry="225.554" transform="rotate(61.437 304.557 241.689)" fill="url(#paint0_linear_2:88)" fill-opacity="0.25"/>
</g>
<circle cx="305" cy="242" r="155" fill="white"/>
<g clip-path="url(#clip0_2:88)">
<path d="M338.896 168.686L315.484 203.444C315.151 203.945 315.01 204.549 315.088 205.146C315.166 205.742 315.457 206.29 315.907 206.689C316.358 207.087 316.937 207.309 317.539 207.313C318.14 207.317 318.723 207.103 319.179 206.711L342.224 186.738C342.36 186.617 342.527 186.538 342.706 186.511C342.885 186.483 343.068 186.509 343.233 186.584C343.398 186.659 343.538 186.78 343.635 186.933C343.732 187.086 343.782 187.264 343.78 187.446V250.026C343.78 250.217 343.721 250.404 343.611 250.561C343.501 250.718 343.345 250.837 343.165 250.902C342.985 250.968 342.789 250.976 342.604 250.927C342.419 250.877 342.254 250.771 342.131 250.624L272.473 167.223C271.353 165.9 269.958 164.837 268.385 164.108C266.812 163.378 265.099 163 263.366 163L260.931 163C257.767 163 254.732 164.257 252.495 166.495C250.257 168.732 249 171.767 249 174.931V263.069C249 266.233 250.257 269.268 252.495 271.505C254.732 273.743 257.767 275 260.931 275C262.971 275.001 264.978 274.478 266.759 273.483C268.54 272.488 270.036 271.052 271.104 269.314L294.516 234.556C294.849 234.055 294.99 233.451 294.912 232.854C294.834 232.258 294.543 231.71 294.093 231.311C293.642 230.913 293.063 230.691 292.461 230.687C291.86 230.683 291.277 230.897 290.821 231.289L267.776 251.262C267.64 251.383 267.473 251.462 267.294 251.489C267.115 251.517 266.932 251.491 266.767 251.416C266.602 251.341 266.462 251.22 266.365 251.067C266.268 250.914 266.218 250.736 266.22 250.554V187.974C266.22 187.783 266.279 187.596 266.389 187.439C266.499 187.282 266.655 187.163 266.835 187.098C267.015 187.032 267.211 187.024 267.396 187.073C267.581 187.123 267.746 187.229 267.869 187.376L337.519 270.777C338.64 272.101 340.037 273.164 341.611 273.894C343.185 274.623 344.899 275.001 346.634 275H349.069C352.233 275 355.268 273.743 357.505 271.505C359.743 269.268 361 266.233 361 263.069V174.931C361 171.767 359.743 168.732 357.505 166.495C355.268 164.257 352.233 163 349.069 163V163C347.029 162.999 345.022 163.522 343.241 164.517C341.46 165.512 339.964 166.948 338.896 168.686V168.686Z" fill="black"/>
</g>
<path d="M201.68 313H206.924C207.092 313 207.404 312.996 207.86 312.988C208.316 312.98 208.744 312.948 209.144 312.892C210.456 312.708 211.552 312.224 212.432 311.44C213.312 310.648 213.972 309.64 214.412 308.416C214.852 307.184 215.072 305.832 215.072 304.36C215.072 302.888 214.852 301.54 214.412 300.316C213.972 299.092 213.312 298.084 212.432 297.292C211.552 296.492 210.456 296.004 209.144 295.828C208.728 295.772 208.3 295.74 207.86 295.732C207.42 295.724 207.108 295.72 206.924 295.72H201.68V313ZM203.504 311.308V297.412H206.924C207.236 297.412 207.584 297.424 207.968 297.448C208.36 297.464 208.692 297.5 208.964 297.556C209.964 297.732 210.776 298.14 211.4 298.78C212.024 299.412 212.48 300.208 212.768 301.168C213.056 302.128 213.2 303.192 213.2 304.36C213.2 305.504 213.056 306.56 212.768 307.528C212.488 308.496 212.036 309.3 211.412 309.94C210.788 310.58 209.972 310.988 208.964 311.164C208.692 311.22 208.364 311.26 207.98 311.284C207.604 311.3 207.252 311.308 206.924 311.308H203.504ZM223.289 313.36C224.545 313.36 225.669 313.052 226.661 312.436C227.661 311.82 228.417 310.944 228.929 309.808L227.285 309.172C226.461 310.836 225.105 311.668 223.217 311.668C221.921 311.668 220.905 311.264 220.169 310.456C219.441 309.648 219.041 308.5 218.969 307.012H229.181C229.245 304.724 228.745 302.932 227.681 301.636C226.625 300.332 225.137 299.68 223.217 299.68C221.969 299.68 220.885 299.96 219.965 300.52C219.053 301.08 218.345 301.876 217.841 302.908C217.337 303.94 217.085 305.164 217.085 306.58C217.085 307.948 217.337 309.14 217.841 310.156C218.353 311.172 219.073 311.96 220.001 312.52C220.937 313.08 222.033 313.36 223.289 313.36ZM223.265 301.3C225.705 301.3 227.061 302.712 227.333 305.536H219.005C219.141 304.168 219.573 303.12 220.301 302.392C221.029 301.664 222.017 301.3 223.265 301.3ZM234.879 313H236.703L241.407 300.04H239.595L235.791 310.696L231.963 300.04H230.175L234.879 313ZM248.578 313.36C249.834 313.36 250.958 313.052 251.95 312.436C252.95 311.82 253.706 310.944 254.218 309.808L252.574 309.172C251.75 310.836 250.394 311.668 248.506 311.668C247.21 311.668 246.194 311.264 245.458 310.456C244.73 309.648 244.33 308.5 244.258 307.012H254.47C254.534 304.724 254.034 302.932 252.97 301.636C251.914 300.332 250.426 299.68 248.506 299.68C247.258 299.68 246.174 299.96 245.254 300.52C244.342 301.08 243.634 301.876 243.13 302.908C242.626 303.94 242.374 305.164 242.374 306.58C242.374 307.948 242.626 309.14 243.13 310.156C243.642 311.172 244.362 311.96 245.29 312.52C246.226 313.08 247.322 313.36 248.578 313.36ZM248.554 301.3C250.994 301.3 252.35 302.712 252.622 305.536H244.294C244.43 304.168 244.862 303.12 245.59 302.392C246.318 301.664 247.306 301.3 248.554 301.3ZM257.373 313H259.137V295.36H257.373V313ZM268.147 313.36C269.427 313.36 270.523 313.072 271.435 312.496C272.355 311.92 273.059 311.12 273.547 310.096C274.043 309.064 274.291 307.868 274.291 306.508C274.291 305.172 274.047 303.992 273.559 302.968C273.079 301.936 272.379 301.132 271.459 300.556C270.547 299.972 269.443 299.68 268.147 299.68C266.883 299.68 265.791 299.968 264.871 300.544C263.959 301.112 263.255 301.908 262.759 302.932C262.263 303.956 262.015 305.148 262.015 306.508C262.015 307.844 262.255 309.028 262.735 310.06C263.223 311.092 263.923 311.9 264.835 312.484C265.755 313.068 266.859 313.36 268.147 313.36ZM268.147 311.668C266.747 311.668 265.687 311.2 264.967 310.264C264.247 309.32 263.887 308.068 263.887 306.508C263.887 304.996 264.235 303.764 264.931 302.812C265.627 301.852 266.699 301.372 268.147 301.372C269.579 301.372 270.647 301.84 271.351 302.776C272.063 303.704 272.419 304.948 272.419 306.508C272.419 308.036 272.067 309.28 271.363 310.24C270.659 311.192 269.587 311.668 268.147 311.668ZM276.926 318.76H278.702V311.452C279.166 312.044 279.738 312.512 280.418 312.856C281.098 313.192 281.878 313.36 282.758 313.36C283.974 313.36 285.01 313.06 285.866 312.46C286.722 311.852 287.374 311.032 287.822 310C288.278 308.968 288.506 307.804 288.506 306.508C288.506 305.22 288.278 304.06 287.822 303.028C287.374 301.996 286.726 301.18 285.878 300.58C285.03 299.98 284.014 299.68 282.83 299.68C281.87 299.68 281.026 299.872 280.298 300.256C279.578 300.632 278.982 301.156 278.51 301.828V300.04H276.926V318.76ZM282.578 311.716C281.658 311.716 280.898 311.492 280.298 311.044C279.698 310.588 279.25 309.968 278.954 309.184C278.658 308.4 278.51 307.508 278.51 306.508C278.51 304.98 278.842 303.736 279.506 302.776C280.178 301.808 281.19 301.324 282.542 301.324C283.47 301.324 284.234 301.552 284.834 302.008C285.442 302.464 285.894 303.084 286.19 303.868C286.486 304.652 286.634 305.532 286.634 306.508C286.634 307.492 286.482 308.376 286.178 309.16C285.882 309.944 285.434 310.568 284.834 311.032C284.234 311.488 283.482 311.716 282.578 311.716ZM296.625 313.36C297.881 313.36 299.005 313.052 299.997 312.436C300.997 311.82 301.753 310.944 302.265 309.808L300.621 309.172C299.797 310.836 298.441 311.668 296.553 311.668C295.257 311.668 294.241 311.264 293.505 310.456C292.777 309.648 292.377 308.5 292.305 307.012H302.517C302.581 304.724 302.081 302.932 301.017 301.636C299.961 300.332 298.473 299.68 296.553 299.68C295.305 299.68 294.221 299.96 293.301 300.52C292.389 301.08 291.681 301.876 291.177 302.908C290.673 303.94 290.421 305.164 290.421 306.58C290.421 307.948 290.673 309.14 291.177 310.156C291.689 311.172 292.409 311.96 293.337 312.52C294.273 313.08 295.369 313.36 296.625 313.36ZM296.601 301.3C299.041 301.3 300.397 302.712 300.669 305.536H292.341C292.477 304.168 292.909 303.12 293.637 302.392C294.365 301.664 295.353 301.3 296.601 301.3ZM305.18 313H306.944V306.532C306.944 305.756 307.032 304.984 307.208 304.216C307.392 303.44 307.808 302.796 308.456 302.284C308.928 301.9 309.44 301.68 309.992 301.624C310.552 301.56 311.072 301.584 311.552 301.696V300.04C310.984 299.896 310.34 299.892 309.62 300.028C308.9 300.156 308.284 300.444 307.772 300.892C307.388 301.18 307.052 301.58 306.764 302.092V300.04H305.18V313ZM325.629 313.36C327.637 313.36 329.277 312.848 330.549 311.824C331.821 310.792 332.693 309.412 333.165 307.684L331.365 307.216C330.997 308.576 330.337 309.66 329.385 310.468C328.433 311.268 327.181 311.668 325.629 311.668C324.277 311.668 323.145 311.36 322.233 310.744C321.329 310.12 320.649 309.26 320.193 308.164C319.745 307.068 319.525 305.8 319.533 304.36C319.549 302.92 319.781 301.652 320.229 300.556C320.677 299.452 321.349 298.592 322.245 297.976C323.149 297.36 324.277 297.052 325.629 297.052C327.181 297.052 328.433 297.456 329.385 298.264C330.337 299.064 330.997 300.144 331.365 301.504L333.165 301.036C332.693 299.308 331.821 297.932 330.549 296.908C329.277 295.876 327.637 295.36 325.629 295.36C323.909 295.36 322.457 295.74 321.273 296.5C320.089 297.26 319.193 298.316 318.585 299.668C317.977 301.02 317.673 302.584 317.673 304.36C317.673 306.128 317.977 307.692 318.585 309.052C319.193 310.404 320.089 311.46 321.273 312.22C322.457 312.98 323.909 313.36 325.629 313.36ZM341.225 313.36C342.505 313.36 343.601 313.072 344.513 312.496C345.433 311.92 346.137 311.12 346.625 310.096C347.121 309.064 347.369 307.868 347.369 306.508C347.369 305.172 347.125 303.992 346.637 302.968C346.157 301.936 345.457 301.132 344.537 300.556C343.625 299.972 342.521 299.68 341.225 299.68C339.961 299.68 338.869 299.968 337.949 300.544C337.037 301.112 336.333 301.908 335.837 302.932C335.341 303.956 335.093 305.148 335.093 306.508C335.093 307.844 335.333 309.028 335.813 310.06C336.301 311.092 337.001 311.9 337.913 312.484C338.833 313.068 339.937 313.36 341.225 313.36ZM341.225 311.668C339.825 311.668 338.765 311.2 338.045 310.264C337.325 309.32 336.965 308.068 336.965 306.508C336.965 304.996 337.313 303.764 338.009 302.812C338.705 301.852 339.777 301.372 341.225 301.372C342.657 301.372 343.725 301.84 344.429 302.776C345.141 303.704 345.497 304.948 345.497 306.508C345.497 308.036 345.145 309.28 344.441 310.24C343.737 311.192 342.665 311.668 341.225 311.668ZM350.004 313H351.78V306.088C351.78 304.624 352.108 303.476 352.764 302.644C353.42 301.812 354.372 301.396 355.62 301.396C356.524 301.396 357.252 301.616 357.804 302.056C358.356 302.488 358.756 303.08 359.004 303.832C359.252 304.584 359.376 305.436 359.376 306.388V313H361.152V305.872C361.152 305.144 361.06 304.416 360.876 303.688C360.7 302.96 360.412 302.296 360.012 301.696C359.612 301.096 359.08 300.616 358.416 300.256C357.752 299.896 356.932 299.716 355.956 299.716C355.028 299.716 354.188 299.896 353.436 300.256C352.692 300.608 352.08 301.136 351.6 301.84V300.04H350.004V313ZM369.102 313.348C370.694 313.348 371.942 313 372.846 312.304C373.758 311.6 374.214 310.636 374.214 309.412C374.214 308.74 374.07 308.176 373.782 307.72C373.502 307.264 373.018 306.868 372.33 306.532C371.65 306.196 370.714 305.876 369.522 305.572C368.506 305.316 367.722 305.08 367.17 304.864C366.626 304.648 366.25 304.42 366.042 304.18C365.834 303.932 365.73 303.636 365.73 303.292C365.73 302.676 366.018 302.184 366.594 301.816C367.17 301.448 367.918 301.272 368.838 301.288C369.814 301.304 370.618 301.536 371.25 301.984C371.882 302.424 372.262 303.024 372.39 303.784L374.19 303.46C374.102 302.708 373.822 302.048 373.35 301.48C372.878 300.912 372.254 300.472 371.478 300.16C370.71 299.84 369.838 299.68 368.862 299.68C367.886 299.68 367.026 299.836 366.282 300.148C365.546 300.452 364.97 300.884 364.554 301.444C364.146 301.996 363.942 302.64 363.942 303.376C363.942 303.976 364.078 304.488 364.35 304.912C364.63 305.328 365.106 305.7 365.778 306.028C366.45 306.348 367.37 306.668 368.538 306.988C369.634 307.284 370.454 307.54 370.998 307.756C371.55 307.972 371.918 308.208 372.102 308.464C372.286 308.712 372.378 309.036 372.378 309.436C372.378 310.14 372.094 310.7 371.526 311.116C370.958 311.532 370.182 311.74 369.198 311.74C368.19 311.74 367.342 311.524 366.654 311.092C365.966 310.652 365.53 310.064 365.346 309.328L363.546 309.628C363.77 310.796 364.37 311.708 365.346 312.364C366.33 313.02 367.582 313.348 369.102 313.348ZM382.287 313.36C383.567 313.36 384.663 313.072 385.575 312.496C386.495 311.92 387.199 311.12 387.687 310.096C388.183 309.064 388.431 307.868 388.431 306.508C388.431 305.172 388.187 303.992 387.699 302.968C387.219 301.936 386.519 301.132 385.599 300.556C384.687 299.972 383.583 299.68 382.287 299.68C381.023 299.68 379.931 299.968 379.011 300.544C378.099 301.112 377.395 301.908 376.899 302.932C376.403 303.956 376.155 305.148 376.155 306.508C376.155 307.844 376.395 309.028 376.875 310.06C377.363 311.092 378.063 311.9 378.975 312.484C379.895 313.068 380.999 313.36 382.287 313.36ZM382.287 311.668C380.887 311.668 379.827 311.2 379.107 310.264C378.387 309.32 378.027 308.068 378.027 306.508C378.027 304.996 378.375 303.764 379.071 302.812C379.767 301.852 380.839 301.372 382.287 301.372C383.719 301.372 384.787 301.84 385.491 302.776C386.203 303.704 386.559 304.948 386.559 306.508C386.559 308.036 386.207 309.28 385.503 310.24C384.799 311.192 383.727 311.668 382.287 311.668ZM391.318 313H393.082V295.36H391.318V313ZM402.164 313.36C403.42 313.36 404.544 313.052 405.536 312.436C406.536 311.82 407.292 310.944 407.804 309.808L406.16 309.172C405.336 310.836 403.98 311.668 402.092 311.668C400.796 311.668 399.78 311.264 399.044 310.456C398.316 309.648 397.916 308.5 397.844 307.012H408.056C408.12 304.724 407.62 302.932 406.556 301.636C405.5 300.332 404.012 299.68 402.092 299.68C400.844 299.68 399.76 299.96 398.84 300.52C397.928 301.08 397.22 301.876 396.716 302.908C396.212 303.94 395.96 305.164 395.96 306.58C395.96 307.948 396.212 309.14 396.716 310.156C397.228 311.172 397.948 311.96 398.876 312.52C399.812 313.08 400.908 313.36 402.164 313.36ZM402.14 301.3C404.58 301.3 405.936 302.712 406.208 305.536H397.88C398.016 304.168 398.448 303.12 399.176 302.392C399.904 301.664 400.892 301.3 402.14 301.3Z" fill="black"/>
<defs>
<filter id="filter0_f_2:88" x="0.327026" y="0.678528" width="608.46" height="482.022" filterUnits="userSpaceOnUse" color-interpolation-filters="sRGB">
<feFlood flood-opacity="0" result="BackgroundImageFix"/>
<feBlend mode="normal" in="SourceGraphic" in2="BackgroundImageFix" result="shape"/>
<feGaussianBlur stdDeviation="50" result="effect1_foregroundBlur_2:88"/>
</filter>
<linearGradient id="paint0_linear_2:88" x1="304.557" y1="16.1357" x2="304.557" y2="467.243" gradientUnits="userSpaceOnUse">
<stop stop-color="#A463B0"/>
<stop offset="1" stop-color="#5F8AFA"/>
</linearGradient>
<clipPath id="clip0_2:88">
<rect width="112" height="112" fill="white" transform="translate(249 163)"/>
</clipPath>
</defs>
</svg>
