<svg viewBox="0 0 236 841" fill="none" xmlns="http://www.w3.org/2000/svg">
<path d="M33 35V804" stroke="black"/>
<path d="M95.0703 804.602H98.3125C98.2656 801.75 95.9219 799.781 92.3594 799.781C88.8516 799.781 86.2813 801.719 86.2969 804.625C86.2891 806.984 87.9531 808.336 90.6563 808.984L92.3984 809.422C94.1406 809.844 95.1094 810.344 95.1172 811.422C95.1094 812.594 94 813.391 92.2812 813.391C90.5234 813.391 89.2578 812.578 89.1484 810.977H85.875C85.9609 814.438 88.4375 816.227 92.3203 816.227C96.2266 816.227 98.5234 814.359 98.5312 811.43C98.5234 808.766 96.5156 807.352 93.7344 806.727L92.2969 806.383C90.9062 806.062 89.7422 805.547 89.7656 804.398C89.7656 803.367 90.6797 802.609 92.3359 802.609C93.9531 802.609 94.9453 803.344 95.0703 804.602ZM100.807 816H111.619V813.211H104.189V809.391H111.033V806.602H104.189V802.789H111.588V800H100.807V816ZM113.668 802.789H118.566V816H121.91V802.789H126.809V800H113.668V802.789ZM128.363 802.789H133.262V816H136.605V802.789H141.504V800H128.363V802.789ZM147.051 800H143.668V816H147.051V800ZM163.217 800H159.85V810.062H159.709L152.803 800H149.834V816H153.217V805.93H153.334L160.295 816H163.217V800ZM176.621 805.172H180.059C179.621 802.008 176.832 799.781 173.215 799.781C168.988 799.781 165.73 802.828 165.73 808.016C165.73 813.078 168.777 816.219 173.285 816.219C177.324 816.219 180.207 813.664 180.207 809.453V807.437H173.512V809.984H176.949C176.902 811.969 175.551 813.227 173.301 813.227C170.762 813.227 169.16 811.328 169.16 807.984C169.16 804.656 170.824 802.773 173.27 802.773C175.012 802.773 176.191 803.672 176.621 805.172ZM191.428 804.602H194.67C194.623 801.75 192.279 799.781 188.717 799.781C185.209 799.781 182.639 801.719 182.654 804.625C182.646 806.984 184.311 808.336 187.014 808.984L188.756 809.422C190.498 809.844 191.467 810.344 191.475 811.422C191.467 812.594 190.357 813.391 188.639 813.391C186.881 813.391 185.615 812.578 185.506 810.977H182.232C182.318 814.438 184.795 816.227 188.678 816.227C192.584 816.227 194.881 814.359 194.889 811.43C194.881 808.766 192.873 807.352 190.092 806.727L188.654 806.383C187.264 806.062 186.1 805.547 186.123 804.398C186.123 803.367 187.037 802.609 188.693 802.609C190.311 802.609 191.303 803.344 191.428 804.602Z" fill="black"/>
<circle cx="33" cy="808" r="32" fill="white" stroke="black" stroke-width="2"/>
<path d="M46.5352 811.266L44.0156 809.859C44.3086 808.453 44.3086 807.105 44.0156 805.699L46.5352 804.293C46.8281 804.117 46.9453 803.766 46.8281 803.473C46.1836 801.363 45.0703 799.488 43.6641 797.906C43.4297 797.672 43.0781 797.613 42.7852 797.789L40.2656 799.195C39.2109 798.316 38.0391 797.613 36.75 797.145V794.273C36.75 793.98 36.5156 793.688 36.1641 793.629C33.9961 793.102 31.8281 793.16 29.7773 793.629C29.4258 793.688 29.25 793.98 29.25 794.273V797.145C27.9023 797.613 26.7305 798.316 25.6758 799.254L23.1562 797.789C22.8633 797.613 22.5117 797.672 22.2773 797.906C20.8711 799.488 19.7578 801.363 19.1133 803.473C18.9961 803.766 19.1133 804.117 19.4062 804.293L21.9258 805.699C21.6914 807.105 21.6914 808.453 21.9258 809.859L19.4062 811.266C19.1133 811.441 18.9961 811.793 19.1133 812.086C19.7578 814.195 20.8711 816.07 22.2773 817.652C22.5117 817.887 22.8633 817.945 23.1562 817.77L25.6758 816.363C26.7305 817.242 27.9023 817.945 29.25 818.414V821.285C29.25 821.578 29.4844 821.871 29.7773 821.988C31.9453 822.457 34.1133 822.398 36.1641 821.988C36.5156 821.871 36.75 821.578 36.75 821.285V818.414C38.0391 817.945 39.2109 817.242 40.2656 816.363L42.7852 817.77C43.0781 817.945 43.4297 817.887 43.6641 817.652C45.1289 816.07 46.1836 814.195 46.8867 812.086C46.9453 811.793 46.8281 811.441 46.5352 811.266ZM33 812.438C30.3633 812.438 28.3125 810.387 28.3125 807.75C28.3125 805.172 30.3633 803.062 33 803.062C35.5781 803.062 37.6875 805.172 37.6875 807.75C37.6875 810.387 35.5781 812.438 33 812.438Z" fill="black"/>
<path d="M86.3906 127H97.2031V124.211H89.7734V120.391H96.6172V117.602H89.7734V113.789H97.1719V111H86.3906V127ZM103.033 111H99.1973L104.111 119L99.1035 127H102.979L106.26 121.539H106.385L109.666 127H113.557L108.564 119L113.447 111H109.627L106.385 116.453H106.26L103.033 111ZM115.588 127H118.971V121.812H121.814C125.494 121.812 127.635 119.617 127.635 116.422C127.635 113.242 125.533 111 121.9 111H115.588V127ZM118.971 119.102V113.766H121.252C123.205 113.766 124.15 114.828 124.15 116.422C124.15 118.008 123.205 119.102 121.268 119.102H118.971ZM129.832 127H140.074V124.211H133.215V111H129.832V127ZM156.395 119C156.395 113.766 153.145 110.781 148.902 110.781C144.637 110.781 141.41 113.766 141.41 119C141.41 124.211 144.637 127.219 148.902 127.219C153.145 127.219 156.395 124.234 156.395 119ZM152.965 119C152.965 122.391 151.355 124.227 148.902 124.227C146.441 124.227 144.84 122.391 144.84 119C144.84 115.609 146.441 113.773 148.902 113.773C151.355 113.773 152.965 115.609 152.965 119ZM158.9 127H162.283V121.328H164.752L167.783 127H171.518L168.119 120.781C169.939 120 170.947 118.414 170.947 116.227C170.947 113.047 168.846 111 165.213 111H158.9V127ZM162.283 118.609V113.766H164.564C166.518 113.766 167.463 114.633 167.463 116.227C167.463 117.812 166.518 118.609 164.58 118.609H162.283ZM173.338 127H184.15V124.211H176.721V120.391H183.564V117.602H176.721V113.789H184.119V111H173.338V127ZM186.809 127H190.191V121.328H192.66L195.691 127H199.426L196.027 120.781C197.848 120 198.855 118.414 198.855 116.227C198.855 113.047 196.754 111 193.121 111H186.809V127ZM190.191 118.609V113.766H192.473C194.426 113.766 195.371 114.633 195.371 116.227C195.371 117.812 194.426 118.609 192.488 118.609H190.191Z" fill="black"/>
<circle cx="33" cy="119" r="32" fill="black" stroke="black" stroke-width="2"/>
<path d="M31.6523 117.461C30.8906 118.164 30.8906 119.395 31.6523 120.098C32.3555 120.859 33.5859 120.859 34.2891 120.098C35.0508 119.395 35.0508 118.164 34.2891 117.461C33.5859 116.699 32.3555 116.699 31.6523 117.461ZM33 104.219C24.9727 104.219 18.4688 110.781 18.4688 118.75C18.4688 126.777 24.9727 133.281 33 133.281C40.9688 133.281 47.5312 126.777 47.5312 118.75C47.5312 110.781 40.9688 104.219 33 104.219ZM40.3828 112.949L36.5156 121.387C36.2812 121.797 35.9883 122.09 35.5781 122.324L27.1406 126.191C26.1445 126.602 25.1484 125.605 25.5586 124.609L29.4258 116.172C29.6602 115.762 29.9531 115.469 30.3633 115.234L38.8008 111.367C39.7969 110.957 40.793 111.953 40.3828 112.949Z" fill="white"/>
<path d="M99.7734 25H96.4063V35.0625H96.2656L89.3594 25H86.3906V41H89.7734V30.9297H89.8906L96.8516 41H99.7734V25ZM117.271 33C117.271 27.7656 114.021 24.7812 109.779 24.7812C105.514 24.7812 102.287 27.7656 102.287 33C102.287 38.2109 105.514 41.2187 109.779 41.2187C114.021 41.2187 117.271 38.2344 117.271 33ZM113.842 33C113.842 36.3906 112.232 38.2266 109.779 38.2266C107.318 38.2266 105.717 36.3906 105.717 33C105.717 29.6094 107.318 27.7734 109.779 27.7734C112.232 27.7734 113.842 29.6094 113.842 33ZM125.449 41C130.324 41 133.277 37.9844 133.277 32.9844C133.277 28 130.324 25 125.496 25H119.777V41H125.449ZM123.16 38.1016V27.8984H125.316C128.316 27.8984 129.902 29.4297 129.902 32.9844C129.902 36.5547 128.316 38.1016 125.309 38.1016H123.16ZM135.783 41H146.596V38.2109H139.166V34.3906H146.01V31.6016H139.166V27.7891H146.564V25H135.783V41ZM157.934 29.6016H161.176C161.129 26.75 158.785 24.7812 155.223 24.7812C151.715 24.7812 149.145 26.7187 149.16 29.625C149.152 31.9844 150.816 33.3359 153.52 33.9844L155.262 34.4219C157.004 34.8437 157.973 35.3437 157.98 36.4219C157.973 37.5937 156.863 38.3906 155.145 38.3906C153.387 38.3906 152.121 37.5781 152.012 35.9766H148.738C148.824 39.4375 151.301 41.2266 155.184 41.2266C159.09 41.2266 161.387 39.3594 161.395 36.4297C161.387 33.7656 159.379 32.3516 156.598 31.7266L155.16 31.3828C153.77 31.0625 152.605 30.5469 152.629 29.3984C152.629 28.3672 153.543 27.6094 155.199 27.6094C156.816 27.6094 157.809 28.3437 157.934 29.6016Z" fill="black"/>
<circle cx="33" cy="33" r="32" fill="white" stroke="black" stroke-width="2"/>
<path d="M46.125 27.125C47.1211 27.125 48 26.3047 48 25.25V21.5C48 20.5039 47.1211 19.625 46.125 19.625H19.875C18.8203 19.625 18 20.5039 18 21.5V25.25C18 26.3047 18.8203 27.125 19.875 27.125H46.125ZM43.3125 21.9688C44.0742 21.9688 44.7188 22.6133 44.7188 23.375C44.7188 24.1953 44.0742 24.7812 43.3125 24.7812C42.4922 24.7812 41.9062 24.1953 41.9062 23.375C41.9062 22.6133 42.4922 21.9688 43.3125 21.9688ZM39.5625 21.9688C40.3242 21.9688 40.9688 22.6133 40.9688 23.375C40.9688 24.1953 40.3242 24.7812 39.5625 24.7812C38.7422 24.7812 38.1562 24.1953 38.1562 23.375C38.1562 22.6133 38.7422 21.9688 39.5625 21.9688ZM46.125 36.5C47.1211 36.5 48 35.6797 48 34.625V30.875C48 29.8789 47.1211 29 46.125 29H19.875C18.8203 29 18 29.8789 18 30.875V34.625C18 35.6797 18.8203 36.5 19.875 36.5H46.125ZM43.3125 31.3438C44.0742 31.3438 44.7188 31.9883 44.7188 32.75C44.7188 33.5703 44.0742 34.1562 43.3125 34.1562C42.4922 34.1562 41.9062 33.5703 41.9062 32.75C41.9062 31.9883 42.4922 31.3438 43.3125 31.3438ZM39.5625 31.3438C40.3242 31.3438 40.9688 31.9883 40.9688 32.75C40.9688 33.5703 40.3242 34.1562 39.5625 34.1562C38.7422 34.1562 38.1562 33.5703 38.1562 32.75C38.1562 31.9883 38.7422 31.3438 39.5625 31.3438ZM46.125 45.875C47.1211 45.875 48 45.0547 48 44V40.25C48 39.2539 47.1211 38.375 46.125 38.375H19.875C18.8203 38.375 18 39.2539 18 40.25V44C18 45.0547 18.8203 45.875 19.875 45.875H46.125ZM43.3125 40.7188C44.0742 40.7188 44.7188 41.3633 44.7188 42.125C44.7188 42.9453 44.0742 43.5312 43.3125 43.5312C42.4922 43.5312 41.9062 42.9453 41.9062 42.125C41.9062 41.3633 42.4922 40.7188 43.3125 40.7188ZM39.5625 40.7188C40.3242 40.7188 40.9688 41.3633 40.9688 42.125C40.9688 42.9453 40.3242 43.5312 39.5625 43.5312C38.7422 43.5312 38.1562 42.9453 38.1562 42.125C38.1562 41.3633 38.7422 40.7188 39.5625 40.7188Z" fill="black"/>
</svg>
