<svg width="164" height="39" viewBox="0 0 164 39" fill="none" xmlns="http://www.w3.org/2000/svg">
<path fill-rule="evenodd" clip-rule="evenodd" d="M0.683972 9.50289L10.1868 -1.42033e-05L19.6894 9.50259C14.4447 14.7472 5.9286 14.7475 0.683972 9.50289Z" fill="black"/>
<path fill-rule="evenodd" clip-rule="evenodd" d="M24.3067 0.683983L33.8095 10.1869L24.307 19.6895C19.0624 14.4448 19.0621 5.92864 24.3067 0.683983Z" fill="black"/>
<path fill-rule="evenodd" clip-rule="evenodd" d="M33.1255 24.307L23.6226 33.8099L14.1201 24.3073C19.3647 19.0626 27.8808 19.0623 33.1255 24.307Z" fill="black"/>
<path fill-rule="evenodd" clip-rule="evenodd" d="M9.50288 33.1262L2.56901e-05 23.6233L9.50258 14.1207C14.7472 19.3653 14.7475 27.8815 9.50288 33.1262Z" fill="black"/>
<path d="M63.0709 11.7488C63.0709 13.4625 62.6908 14.9507 61.9306 16.2134C61.1704 17.4761 60.0881 18.4553 58.6836 19.1511C57.2921 19.834 55.63 20.1754 53.6972 20.1754H45.6958V30.786H42.0043V3.55409H53.4653C56.519 3.55409 58.8834 4.26919 60.5584 5.6994C62.2334 7.12961 63.0709 9.14607 63.0709 11.7488ZM59.3601 11.7874C59.3601 8.26991 57.247 6.51114 53.0208 6.51114H45.6958V17.257H53.1754C55.237 17.257 56.7831 16.8061 57.8139 15.9041C58.8447 14.9893 59.3601 13.6171 59.3601 11.7874Z" fill="black"/>
<path d="M70.7847 31.1726C68.6845 31.1726 67.1061 30.6185 66.0496 29.5104C64.9931 28.4023 64.4648 26.8819 64.4648 24.9492C64.4648 22.7846 65.1734 21.1224 66.5908 19.9628C68.021 18.8032 70.3209 18.1847 73.4905 18.1074L78.187 18.0301V16.8898C78.187 15.189 77.8263 13.9714 77.1047 13.237C76.3832 12.5025 75.2493 12.1353 73.7031 12.1353C72.1441 12.1353 71.0102 12.3995 70.3016 12.9277C69.5929 13.456 69.1677 14.3 69.026 15.4596L65.3925 15.131C65.9852 11.3687 68.7812 9.48752 73.7805 9.48752C76.4089 9.48752 78.3868 10.0931 79.7139 11.3043C81.041 12.5025 81.7046 14.242 81.7046 16.5226V25.529C81.7046 26.5598 81.8399 27.3393 82.1104 27.8676C82.381 28.383 82.8964 28.6407 83.6566 28.6407C84.0174 28.6407 84.3975 28.5956 84.7969 28.5054V30.67C84.3588 30.7731 83.9143 30.8504 83.4633 30.902C83.0124 30.9535 82.5614 30.9793 82.1104 30.9793C80.822 30.9793 79.8814 30.6443 79.2887 29.9743C78.7089 29.2914 78.3803 28.2284 78.303 26.7853H78.187C77.298 28.383 76.2608 29.5169 75.0754 30.1869C73.9029 30.844 72.4727 31.1726 70.7847 31.1726ZM78.187 20.4653L74.3796 20.5426C72.7561 20.5555 71.5192 20.723 70.6688 21.0451C69.8184 21.3544 69.1677 21.8311 68.7167 22.4753C68.2658 23.1196 68.0403 23.9635 68.0403 25.0072C68.0403 26.1411 68.3431 27.0172 68.9487 27.6357C69.5671 28.2542 70.4433 28.5634 71.5772 28.5634C72.8656 28.5634 73.9995 28.2735 74.9787 27.6937C75.9709 27.1139 76.7504 26.3214 77.3173 25.3164C77.8971 24.2985 78.187 23.2549 78.187 22.1854V20.4653Z" fill="black"/>
<path d="M93.0326 39C90.752 39 88.9352 38.5491 87.5823 37.6471C86.2294 36.7581 85.3597 35.4889 84.9732 33.8397L88.4714 33.3372C88.7033 34.3036 89.2123 35.0444 89.9982 35.5598C90.7971 36.0881 91.8408 36.3522 93.1292 36.3522C94.8558 36.3522 96.1507 35.8433 97.014 34.8254C97.8901 33.8075 98.3282 32.2871 98.3282 30.2642V26.9013H98.2896C97.6325 28.2413 96.7305 29.2527 95.5838 29.9356C94.437 30.6056 93.097 30.9406 91.5637 30.9406C88.9997 30.9406 87.112 30.0902 85.9009 28.3894C84.7026 26.6887 84.1035 24.0151 84.1035 20.3687C84.1035 16.6708 84.7477 13.9456 86.0362 12.1933C87.3375 10.4281 89.3089 9.5455 91.9503 9.5455C93.432 9.5455 94.7141 9.88694 95.7964 10.5698C96.8916 11.2398 97.7355 12.1998 98.3282 13.4496H98.3669C98.3669 13.1919 98.3798 12.7925 98.4055 12.2513C98.4313 11.6973 98.4635 11.1754 98.5022 10.6858C98.5408 10.1962 98.573 9.9256 98.5988 9.87406H101.904C101.826 10.5698 101.788 12.0129 101.788 14.2033V30.1869C101.788 33.1246 101.06 35.3279 99.6038 36.7967C98.1478 38.2656 95.9574 39 93.0326 39ZM98.3282 20.33C98.3282 17.7917 97.8064 15.7946 96.7627 14.3386C95.7319 12.8698 94.4113 12.1353 92.8007 12.1353C91.0226 12.1353 89.7277 12.7796 88.9159 14.068C88.1042 15.3565 87.6983 17.4439 87.6983 20.33C87.6983 23.1905 88.0784 25.2456 88.8386 26.4954C89.5988 27.7452 90.9002 28.3701 92.7427 28.3701C94.3919 28.3701 95.7319 27.655 96.7627 26.2248C97.8064 24.7817 98.3282 22.8168 98.3282 20.33Z" fill="black"/>
<path d="M122.451 20.3107C122.451 23.97 121.646 26.6951 120.035 28.4861C118.424 30.2771 116.086 31.1726 113.019 31.1726C109.965 31.1726 107.659 30.2449 106.1 28.3894C104.541 26.5212 103.761 23.8282 103.761 20.3107C103.761 16.703 104.541 13.9972 106.1 12.1933C107.672 10.3894 110.017 9.48752 113.135 9.48752C116.331 9.48752 118.682 10.3701 120.19 12.1353C121.697 13.8877 122.451 16.6128 122.451 20.3107ZM118.798 20.3107C118.798 17.4245 118.366 15.3308 117.503 14.0294C116.653 12.7151 115.216 12.058 113.193 12.058C111.157 12.058 109.682 12.728 108.767 14.068C107.865 15.3952 107.414 17.4761 107.414 20.3107C107.414 23.068 107.859 25.1425 108.748 26.534C109.65 27.9127 111.061 28.602 112.981 28.602C115.068 28.602 116.556 27.932 117.445 26.592C118.347 25.252 118.798 23.1582 118.798 20.3107Z" fill="black"/>
<path d="M137.895 30.786C137.87 30.6443 137.838 30.3801 137.799 29.9936C137.773 29.5942 137.747 29.1561 137.722 28.6794C137.709 28.2026 137.702 27.7839 137.702 27.4231H137.625C136.981 28.7631 136.124 29.723 135.054 30.3028C133.998 30.8826 132.684 31.1726 131.112 31.1726C128.47 31.1726 126.525 30.2835 125.275 28.5054C124.038 26.7273 123.419 24.0344 123.419 20.4267C123.419 16.7803 124.057 14.0487 125.333 12.232C126.621 10.4023 128.548 9.48752 131.112 9.48752C132.696 9.48752 134.017 9.77742 135.074 10.3572C136.13 10.9371 136.981 11.8583 137.625 13.121H137.664L137.625 10.7824V2.10455H141.104V26.4761C141.104 27.5713 141.11 28.4796 141.123 29.2012C141.149 29.9098 141.181 30.4381 141.22 30.786H137.895ZM127.072 20.3107C127.072 23.2355 127.459 25.3293 128.232 26.592C129.005 27.8547 130.261 28.4861 132.001 28.4861C133.972 28.4861 135.402 27.8032 136.291 26.4374C137.18 25.0716 137.625 22.9521 137.625 20.0788C137.625 17.3086 137.18 15.2792 136.291 13.9907C135.402 12.7023 133.985 12.058 132.039 12.058C130.287 12.058 129.018 12.7087 128.232 14.0101C127.459 15.2985 127.072 17.3988 127.072 20.3107Z" fill="black"/>
<path d="M149.417 31.1726C147.317 31.1726 145.738 30.6185 144.682 29.5104C143.625 28.4023 143.097 26.8819 143.097 24.9492C143.097 22.7846 143.805 21.1224 145.223 19.9628C146.653 18.8032 148.953 18.1847 152.123 18.1074L156.819 18.0301V16.8898C156.819 15.189 156.458 13.9714 155.737 13.237C155.015 12.5025 153.881 12.1353 152.335 12.1353C150.776 12.1353 149.642 12.3995 148.934 12.9277C148.225 13.456 147.8 14.3 147.658 15.4596L144.025 15.131C144.617 11.3687 147.413 9.48752 152.412 9.48752C155.041 9.48752 157.019 10.0931 158.346 11.3043C159.673 12.5025 160.337 14.242 160.337 16.5226V25.529C160.337 26.5598 160.472 27.3393 160.742 27.8676C161.013 28.383 161.528 28.6407 162.289 28.6407C162.649 28.6407 163.03 28.5956 163.429 28.5054V30.67C162.991 30.7731 162.546 30.8504 162.095 30.902C161.644 30.9535 161.193 30.9793 160.742 30.9793C159.454 30.9793 158.513 30.6443 157.921 29.9743C157.341 29.2914 157.012 28.2284 156.935 26.7853H156.819C155.93 28.383 154.893 29.5169 153.707 30.1869C152.535 30.844 151.105 31.1726 149.417 31.1726ZM156.819 20.4653L153.012 20.5426C151.388 20.5555 150.151 20.723 149.301 21.0451C148.45 21.3544 147.8 21.8311 147.349 22.4753C146.898 23.1196 146.672 23.9635 146.672 25.0072C146.672 26.1411 146.975 27.0172 147.581 27.6357C148.199 28.2542 149.075 28.5634 150.209 28.5634C151.498 28.5634 152.632 28.2735 153.611 27.6937C154.603 27.1139 155.382 26.3214 155.949 25.3164C156.529 24.2985 156.819 23.2549 156.819 22.1854V20.4653Z" fill="black"/>
</svg>
